<?xml version="1.0" encoding="utf-8"?>
<!-- Generator: Adobe Illustrator 26.3.1, SVG Export Plug-In . SVG Version: 6.00 Build 0)  -->
<svg version="1.1" id="Layer_1" xmlns="http://www.w3.org/2000/svg" xmlns:xlink="http://www.w3.org/1999/xlink" x="0px" y="0px"
	 viewBox="0 0 256 417" style="enable-background:new 0 0 256 417;" xml:space="preserve">
<style type="text/css">
	.st0{fill-rule:evenodd;clip-rule:evenodd;fill:#2A2AFF;}
	.st1{fill:none;stroke:#5E9EF9;stroke-width:0.4231;stroke-miterlimit:42.314;}
	.st2{fill-rule:evenodd;clip-rule:evenodd;fill:#4BFF2A;}
	.st3{fill:#2A2AFF;}
</style>
<g>
	<g>
		<g>
			<path class="st0" d="M-175.4,73.5l-112,68l41.3,23.6l112-68.5V44.1L-175.4,20L-175.4,73.5L-175.4,73.5z M-195.2-52.3l-122.7,66.9
				V-5.7L-207-71l-41.2-23.6l-110.9,64.8l-0.6,114.5L-237,17.3l0.6,22.5l-114.1,65.8l41.3,23.6l113.6-65.8L-195.2-52.3z
				 M-175.4-52.8l-0.6,48.7l41.8,23.6v-48.2L-175.4-52.8z"/>
		</g>
		<g>
			<path class="st1" d="M-175.4,73.5l-112,68l41.3,23.6l112-68.5V44.1L-175.4,20L-175.4,73.5L-175.4,73.5z M-195.2-52.3l-122.7,66.9
				V-5.7L-207-71l-41.2-23.6l-110.9,64.8l-0.6,114.5L-237,17.3l0.6,22.5l-114.1,65.8l41.3,23.6l113.6-65.8L-195.2-52.3z
				 M-175.4-52.8l-0.6,48.7l41.8,23.6v-48.2L-175.4-52.8z"/>
		</g>
	</g>
</g>
<g>
	<g>
		<g>
			<polygon class="st2" points="-276.9,172.4 -277.4,221.1 -235.7,244.6 -235.7,196.5 			"/>
		</g>
		<g>
			<polygon class="st1" points="-276.9,172.4 -277.4,221.1 -235.7,244.6 -235.7,196.5 			"/>
		</g>
	</g>
</g>
<g id="color_index_0" transform="translate(133.58199954986563, 271.18611123031815) scale(0.317128593072059)">
	<path class="st3" d="M-311.6-144.9v-507.6h507.6L-311.6-144.9z M-231.1-64.4h507.6V-572L-231.1-64.4z"/>
</g>
</svg>
