<?xml version="1.0" encoding="UTF-8"?><svg id="b" xmlns="http://www.w3.org/2000/svg" viewBox="0 0 262.12 261.26"><g id="c"><g><g><path d="M9.02,6.31H247.29c4.7,0,8.52,3.82,8.52,8.52v245.93H.5V14.83C.5,10.13,4.32,6.31,9.02,6.31Z" fill="#1a2e35"/><path d="M255.81,261.26H.5c-.28,0-.5-.22-.5-.5V14.83C0,9.86,4.05,5.81,9.02,5.81H247.29c4.97,0,9.02,4.05,9.02,9.02v245.93c0,.28-.22,.5-.5,.5Zm-254.81-1H255.31V14.83c0-4.42-3.6-8.02-8.02-8.02H9.02C4.6,6.81,1,10.41,1,14.83v245.43Z" fill="#1a2e35"/></g><g><path d="M14.83,.5H253.1c4.7,0,8.52,3.82,8.52,8.52V254.95H6.31V9.02C6.31,4.32,10.13,.5,14.83,.5Z" fill="#fff"/><path d="M261.62,255.45H6.31c-.28,0-.5-.22-.5-.5V9.02C5.81,4.05,9.86,0,14.83,0H253.1c4.97,0,9.02,4.05,9.02,9.02V254.95c0,.28-.22,.5-.5,.5Zm-254.81-1h254.31V9.02c0-4.42-3.6-8.02-8.02-8.02H14.83c-4.42,0-8.02,3.6-8.02,8.02V254.45Z" fill="#1a2e35"/></g><g><path d="M14.83,.5H253.1c4.7,0,8.52,3.82,8.52,8.52v15.8H6.31V9.02C6.31,4.32,10.13,.5,14.83,.5Z" fill="#5ae4a7"/><path d="M261.62,25.32H6.31c-.28,0-.5-.22-.5-.5V9.02C5.81,4.05,9.86,0,14.83,0H253.1c4.97,0,9.02,4.05,9.02,9.02v15.8c0,.28-.22,.5-.5,.5ZM6.81,24.32h254.31V9.02c0-4.42-3.6-8.02-8.02-8.02H14.83c-4.42,0-8.02,3.6-8.02,8.02v15.3Z" fill="#1a2e35"/></g><g><g><path d="M220.56,13.43c0-2.19-1.77-3.96-3.96-3.96s-3.96,1.77-3.96,3.96,1.77,3.96,3.96,3.96,3.96-1.77,3.96-3.96Z" fill="#fff"/><path d="M216.6,17.9c-2.46,0-4.46-2-4.46-4.46s2-4.46,4.46-4.46,4.46,2,4.46,4.46-2,4.46-4.46,4.46Zm0-7.93c-1.91,0-3.46,1.55-3.46,3.46s1.55,3.46,3.46,3.46,3.46-1.55,3.46-3.46-1.55-3.46-3.46-3.46Z" fill="#1a2e35"/></g><g><path d="M232.45,13.43c0-2.19-1.77-3.96-3.96-3.96s-3.96,1.77-3.96,3.96,1.77,3.96,3.96,3.96,3.96-1.77,3.96-3.96Z" fill="#fff"/><path d="M228.49,17.9c-2.46,0-4.46-2-4.46-4.46s2-4.46,4.46-4.46,4.46,2,4.46,4.46-2,4.46-4.46,4.46Zm0-7.93c-1.91,0-3.46,1.55-3.46,3.46s1.55,3.46,3.46,3.46,3.46-1.55,3.46-3.46-1.55-3.46-3.46-3.46Z" fill="#1a2e35"/></g><g><path d="M244.34,13.43c0-2.19-1.77-3.96-3.96-3.96s-3.96,1.77-3.96,3.96,1.77,3.96,3.96,3.96,3.96-1.77,3.96-3.96Z" fill="#1a2e35"/><path d="M240.38,17.9c-2.46,0-4.46-2-4.46-4.46s2-4.46,4.46-4.46,4.46,2,4.46,4.46-2,4.46-4.46,4.46Zm0-7.93c-1.91,0-3.46,1.55-3.46,3.46s1.55,3.46,3.46,3.46,3.46-1.55,3.46-3.46-1.55-3.46-3.46-3.46Z" fill="#1a2e35"/></g></g></g><g><g><rect x="30.28" y="53.48" width="6.83" height="7.72" fill="#1a2e35"/><rect x="30.28" y="66.17" width="6.83" height="7.72" fill="#1a2e35"/><rect x="30.28" y="78.85" width="6.83" height="7.72" fill="#1a2e35"/><rect x="30.28" y="91.53" width="6.83" height="7.72" fill="#1a2e35"/><rect x="30.28" y="104.22" width="6.83" height="7.72" fill="#1a2e35"/><rect x="30.28" y="116.9" width="6.83" height="7.72" fill="#1a2e35"/><rect x="30.28" y="129.58" width="6.83" height="7.72" fill="#1a2e35"/><rect x="30.28" y="142.27" width="6.83" height="7.72" fill="#1a2e35"/><rect x="30.28" y="154.95" width="6.83" height="7.72" fill="#1a2e35"/><rect x="30.28" y="167.64" width="6.83" height="7.72" fill="#1a2e35"/><rect x="30.28" y="180.32" width="6.83" height="7.72" fill="#1a2e35"/><rect x="30.28" y="193" width="6.83" height="7.72" fill="#1a2e35"/><rect x="30.28" y="205.69" width="6.83" height="7.72" fill="#1a2e35"/></g><g><path d="M51.45,66.82h-.97v-6.51h.97v.46c.38-.38,.82-.58,1.31-.58,.58,0,1.06,.21,1.43,.64,.38,.42,.57,.96,.57,1.61s-.19,1.16-.57,1.58c-.38,.42-.85,.63-1.42,.63-.49,0-.93-.2-1.32-.59v2.77Zm2.31-4.37c0-.4-.11-.73-.33-.99-.22-.26-.5-.39-.84-.39-.36,0-.65,.12-.87,.37-.22,.25-.33,.57-.33,.98s.11,.72,.33,.98c.22,.25,.51,.38,.87,.38,.34,0,.62-.13,.83-.38,.23-.25,.34-.57,.34-.95Z"/><path d="M55.79,60.31h.97v.38c.18-.19,.34-.32,.48-.39,.14-.07,.31-.11,.5-.11,.26,0,.52,.08,.8,.25l-.45,.89c-.18-.13-.36-.2-.54-.2-.53,0-.8,.4-.8,1.2v2.19h-.97v-4.21Z"/><path d="M62.15,60.31h.98v4.21h-.98v-.44c-.4,.38-.83,.56-1.29,.56-.58,0-1.06-.21-1.44-.63-.38-.43-.57-.97-.57-1.61s.19-1.16,.57-1.58c.38-.42,.85-.63,1.42-.63,.49,0,.93,.2,1.32,.61v-.49Zm-2.31,2.09c0,.4,.11,.73,.32,.99,.22,.26,.5,.39,.84,.39,.36,0,.65-.12,.87-.37,.22-.26,.33-.58,.33-.98s-.11-.72-.33-.98c-.22-.25-.51-.38-.87-.38-.33,0-.61,.13-.84,.38-.22,.26-.33,.57-.33,.95Z"/><path d="M68.43,64.42c0,.2,0,.37-.02,.53-.01,.15-.03,.28-.05,.4-.07,.32-.2,.59-.41,.82-.38,.44-.9,.66-1.57,.66-.56,0-1.03-.15-1.39-.45-.38-.31-.59-.74-.65-1.29h.98c.04,.21,.1,.37,.19,.48,.2,.26,.5,.39,.88,.39,.71,0,1.07-.44,1.07-1.31v-.59c-.39,.4-.83,.59-1.34,.59-.57,0-1.04-.21-1.41-.62-.37-.42-.55-.95-.55-1.58s.17-1.14,.51-1.57c.37-.46,.86-.68,1.46-.68,.53,0,.97,.2,1.32,.59v-.48h.97v4.11Zm-.93-2c0-.41-.11-.74-.33-.98-.22-.25-.51-.38-.85-.38-.37,0-.66,.14-.87,.41-.19,.25-.29,.56-.29,.95s.1,.7,.29,.94c.21,.27,.5,.4,.87,.4s.67-.14,.88-.41c.2-.25,.3-.56,.3-.94Z"/><path d="M69.66,60.31h.97v.39c.19-.2,.35-.33,.48-.4,.14-.07,.32-.11,.53-.11,.48,0,.85,.21,1.13,.62,.31-.42,.72-.62,1.24-.62,.95,0,1.42,.58,1.42,1.73v2.6h-.98v-2.34c0-.4-.05-.69-.15-.86-.1-.17-.27-.26-.5-.26-.27,0-.46,.1-.59,.3-.12,.2-.18,.53-.18,.97v2.18h-.98v-2.33c0-.75-.22-1.12-.65-1.12-.27,0-.47,.1-.6,.31-.13,.2-.19,.53-.19,.97v2.18h-.97v-4.21Z"/><path d="M79.78,60.31h.98v4.21h-.98v-.44c-.4,.38-.83,.56-1.29,.56-.58,0-1.06-.21-1.44-.63-.38-.43-.57-.97-.57-1.61s.19-1.16,.57-1.58c.38-.42,.85-.63,1.42-.63,.49,0,.93,.2,1.32,.61v-.49Zm-2.31,2.09c0,.4,.11,.73,.32,.99,.22,.26,.5,.39,.84,.39,.36,0,.65-.12,.87-.37,.22-.26,.33-.58,.33-.98s-.11-.72-.33-.98c-.22-.25-.51-.38-.87-.38-.33,0-.61,.13-.84,.38-.22,.26-.33,.57-.33,.95Z"/><path d="M87.17,61.03l-.8,.43c-.13-.26-.28-.39-.47-.39-.09,0-.17,.03-.23,.09s-.1,.13-.1,.23c0,.16,.19,.32,.56,.48,.52,.22,.86,.43,1.04,.61,.18,.19,.27,.44,.27,.76,0,.41-.15,.75-.45,1.02-.29,.26-.64,.39-1.06,.39-.71,0-1.21-.34-1.5-1.03l.83-.38c.12,.2,.2,.33,.26,.38,.12,.11,.26,.16,.42,.16,.33,0,.49-.15,.49-.45,0-.17-.13-.33-.38-.48-.1-.05-.2-.1-.29-.14-.1-.05-.2-.09-.3-.14-.28-.14-.48-.28-.6-.42-.15-.18-.22-.4-.22-.68,0-.37,.13-.67,.38-.91,.26-.24,.57-.36,.94-.36,.54,0,.94,.28,1.2,.83Z"/><path d="M88.11,62.38c0-.61,.22-1.13,.65-1.55s.97-.64,1.59-.64,1.16,.21,1.6,.64c.43,.43,.65,.96,.65,1.58s-.22,1.16-.65,1.59c-.44,.42-.98,.64-1.61,.64s-1.16-.22-1.59-.65c-.43-.43-.64-.96-.64-1.61Zm1,.02c0,.42,.11,.75,.34,1,.23,.25,.54,.37,.91,.37s.69-.12,.91-.37c.23-.25,.34-.57,.34-.98s-.11-.74-.34-.98c-.23-.25-.54-.37-.91-.37s-.67,.12-.9,.37c-.23,.25-.35,.57-.35,.96Z"/><path d="M94.61,57.21v7.31h-.97v-7.31h.97Z"/><path d="M95.7,58.55c0-.17,.06-.32,.19-.44s.27-.19,.45-.19,.33,.06,.45,.19c.12,.12,.19,.27,.19,.45s-.06,.33-.19,.45c-.12,.12-.27,.19-.45,.19s-.33-.06-.45-.19-.19-.28-.19-.45Zm1.12,1.75v4.21h-.97v-4.21h.97Z"/><path d="M101.16,57.21h.98v7.31h-.98v-.44c-.38,.38-.82,.56-1.3,.56-.58,0-1.06-.21-1.44-.63-.38-.43-.57-.97-.57-1.61s.19-1.15,.57-1.58c.38-.42,.85-.64,1.41-.64,.49,0,.93,.2,1.32,.61v-3.58Zm-2.31,5.19c0,.4,.11,.73,.32,.99,.22,.26,.5,.39,.84,.39,.36,0,.65-.12,.87-.37,.22-.26,.33-.58,.33-.98s-.11-.72-.33-.98c-.22-.25-.51-.38-.87-.38-.33,0-.61,.13-.84,.38-.22,.26-.33,.57-.33,.95Z"/><path d="M103.22,58.55c0-.17,.06-.32,.19-.44s.27-.19,.45-.19,.33,.06,.45,.19c.12,.12,.19,.27,.19,.45s-.06,.33-.19,.45c-.12,.12-.27,.19-.45,.19s-.33-.06-.45-.19-.19-.28-.19-.45Zm1.12,1.75v4.21h-.97v-4.21h.97Z"/><path d="M106.58,61.22v3.31h-.97v-3.31h-.42v-.91h.42v-1.54h.97v1.54h.76v.91h-.76Z"/><path d="M109.32,63.74l-1.9-3.43h1.13l1.29,2.42,1.2-2.42h1.1l-3.36,6.51h-1.11l1.64-3.08Z"/><path d="M116.15,61.01h-1.06l1.69-3.2h1.32l1.7,3.2h-1.06l-1.29-2.4-1.29,2.4Z"/><path d="M120.32,61.14c0-1.06,.25-1.91,.74-2.55,.44-.57,.98-.86,1.61-.86s1.17,.29,1.61,.86c.5,.63,.74,1.5,.74,2.59s-.25,1.95-.74,2.59c-.44,.57-.98,.86-1.61,.86s-1.17-.29-1.62-.86c-.5-.63-.74-1.51-.74-2.63Zm.99,0c0,.74,.13,1.36,.39,1.85,.26,.48,.58,.72,.98,.72s.72-.24,.98-.72c.26-.48,.39-1.08,.39-1.81s-.13-1.34-.39-1.82c-.26-.48-.59-.72-.98-.72s-.72,.24-.98,.72c-.26,.48-.39,1.07-.39,1.78Z"/><path d="M126.18,64.04c0-.16,.06-.3,.18-.42s.26-.18,.42-.18,.31,.06,.42,.18c.12,.12,.18,.26,.18,.42s-.06,.31-.18,.43c-.12,.12-.26,.17-.42,.17s-.31-.06-.43-.17c-.12-.12-.17-.26-.17-.43Z"/><path d="M131.9,58.78h-3.3v-.94h4.98l-4.21,6.91-.8-.51,3.33-5.46Z"/><path d="M133.13,64.04c0-.16,.06-.3,.18-.42s.26-.18,.42-.18,.31,.06,.42,.18,.18,.26,.18,.42-.06,.31-.18,.43c-.12,.12-.26,.17-.42,.17s-.31-.06-.43-.17c-.12-.12-.17-.26-.17-.43Z"/><path d="M135.48,61.14c0-1.06,.25-1.91,.75-2.55,.44-.57,.98-.86,1.61-.86s1.17,.29,1.61,.86c.5,.63,.74,1.5,.74,2.59s-.25,1.95-.74,2.59c-.44,.57-.98,.86-1.61,.86s-1.17-.29-1.62-.86c-.5-.63-.75-1.51-.75-2.63Zm.99,0c0,.74,.13,1.36,.38,1.85,.26,.48,.58,.72,.98,.72s.72-.24,.98-.72c.26-.48,.39-1.08,.39-1.81s-.13-1.34-.39-1.82c-.26-.48-.59-.72-.98-.72s-.72,.24-.98,.72c-.26,.48-.39,1.07-.39,1.78Z"/><path d="M141.78,63.27l.87,.34-1.23,2.47-.66-.27,1.03-2.54Zm-.24-2.48c0-.16,.06-.3,.18-.42s.26-.18,.42-.18,.31,.06,.42,.18c.12,.12,.18,.26,.18,.42s-.06,.31-.18,.43c-.12,.12-.26,.17-.42,.17s-.31-.06-.43-.18c-.12-.12-.17-.26-.17-.43Z"/><path d="M53.75,81.76v1.29c-.22-.27-.42-.46-.6-.56-.17-.1-.38-.16-.61-.16-.37,0-.67,.13-.91,.39-.24,.26-.36,.58-.36,.96s.12,.72,.35,.97c.24,.25,.54,.38,.9,.38,.23,0,.44-.05,.62-.15,.17-.1,.38-.29,.61-.57v1.29c-.4,.2-.79,.31-1.19,.31-.65,0-1.2-.21-1.64-.63-.44-.42-.66-.95-.66-1.58s.22-1.16,.67-1.59c.44-.43,.99-.65,1.64-.65,.42,0,.81,.1,1.18,.3Z"/><path d="M54.5,83.65c0-.61,.22-1.13,.65-1.55s.97-.64,1.59-.64,1.16,.21,1.6,.64c.43,.43,.65,.96,.65,1.58s-.22,1.16-.65,1.59c-.44,.42-.98,.64-1.61,.64s-1.16-.22-1.59-.65c-.43-.43-.64-.96-.64-1.61Zm1,.02c0,.42,.11,.75,.34,1,.23,.25,.54,.37,.91,.37s.69-.12,.91-.37c.23-.25,.34-.57,.34-.98s-.11-.74-.34-.98c-.23-.25-.54-.37-.91-.37s-.67,.12-.9,.37c-.23,.25-.35,.57-.35,.96Z"/><path d="M60.02,81.58h.98v.39c.34-.34,.72-.51,1.15-.51,.49,0,.87,.15,1.15,.46,.24,.26,.35,.69,.35,1.29v2.58h-.98v-2.35c0-.42-.06-.7-.17-.86-.11-.16-.32-.24-.61-.24-.32,0-.55,.11-.69,.32-.13,.21-.2,.58-.2,1.1v2.03h-.98v-4.21Z"/><path d="M65.89,82.48v3.31h-.97v-3.31h-.42v-.91h.42v-1.54h.97v1.54h.76v.91h-.76Z"/><path d="M67.3,81.58h.97v.38c.18-.19,.34-.32,.48-.39,.14-.07,.31-.11,.5-.11,.26,0,.52,.08,.8,.25l-.45,.89c-.18-.13-.36-.2-.54-.2-.53,0-.8,.4-.8,1.2v2.19h-.97v-4.21Z"/><path d="M73.67,81.58h.98v4.21h-.98v-.44c-.4,.38-.83,.56-1.29,.56-.58,0-1.06-.21-1.44-.63-.38-.43-.57-.97-.57-1.61s.19-1.16,.57-1.58c.38-.42,.85-.63,1.42-.63,.49,0,.93,.2,1.32,.61v-.49Zm-2.31,2.09c0,.4,.11,.73,.32,.99,.22,.26,.5,.39,.84,.39,.36,0,.65-.12,.87-.37,.22-.26,.33-.58,.33-.98s-.11-.72-.33-.98c-.22-.25-.51-.38-.87-.38-.33,0-.61,.13-.84,.38-.22,.26-.33,.57-.33,.95Z"/><path d="M79.15,81.76v1.29c-.22-.27-.42-.46-.6-.56-.17-.1-.38-.16-.61-.16-.37,0-.67,.13-.91,.39-.24,.26-.36,.58-.36,.96s.12,.72,.35,.97c.24,.25,.54,.38,.9,.38,.23,0,.44-.05,.62-.15,.17-.1,.38-.29,.61-.57v1.29c-.4,.2-.79,.31-1.19,.31-.65,0-1.2-.21-1.64-.63-.44-.42-.66-.95-.66-1.58s.22-1.16,.67-1.59c.44-.43,.99-.65,1.64-.65,.42,0,.81,.1,1.18,.3Z"/><path d="M81.1,82.48v3.31h-.97v-3.31h-.42v-.91h.42v-1.54h.97v1.54h.76v.91h-.76Z"/><path d="M89.36,84.17h-2.86l-.74,1.62h-1.09l3.31-7.1,3.19,7.1h-1.1l-.7-1.62Zm-.41-.95l-.99-2.27-1.04,2.27h2.03Z"/><path d="M92.79,78.48v7.31h-.97v-7.31h.97Z"/><path d="M95,88.08h-.97v-6.51h.97v.46c.38-.38,.82-.58,1.31-.58,.58,0,1.06,.21,1.43,.64,.38,.42,.57,.96,.57,1.61s-.19,1.16-.57,1.58c-.38,.42-.85,.63-1.42,.63-.49,0-.93-.2-1.32-.59v2.77Zm2.31-4.37c0-.4-.11-.73-.33-.99-.22-.26-.5-.39-.84-.39-.36,0-.65,.12-.87,.37-.22,.25-.33,.57-.33,.98s.11,.72,.33,.98c.22,.25,.51,.38,.87,.38,.34,0,.62-.13,.83-.38,.23-.25,.34-.57,.34-.95Z"/><path d="M99.34,78.48h.97v3.44c.35-.31,.73-.47,1.15-.47,.48,0,.86,.15,1.14,.46,.24,.27,.36,.7,.36,1.29v2.58h-.97v-2.49c0-.34-.06-.58-.18-.73-.12-.15-.31-.23-.58-.23-.34,0-.58,.11-.72,.32-.14,.21-.2,.58-.2,1.1v2.04h-.97v-7.31Z"/><path d="M104.15,85.79l1.41-7.18,2.29,5.19,2.38-5.19,1.26,7.18h-1.03l-.64-4.03-1.98,4.34-1.92-4.34-.72,4.04h-1.04Z"/><path d="M112.57,79.82c0-.17,.06-.32,.19-.44s.27-.19,.45-.19,.33,.06,.45,.19c.12,.12,.19,.27,.19,.45s-.06,.33-.19,.45c-.12,.12-.27,.19-.45,.19s-.33-.06-.45-.19-.19-.28-.19-.45Zm1.12,1.75v4.21h-.97v-4.21h.97Z"/><path d="M114.92,81.58h.98v.39c.34-.34,.72-.51,1.15-.51,.49,0,.87,.15,1.15,.46,.24,.26,.35,.69,.35,1.29v2.58h-.98v-2.35c0-.42-.06-.7-.17-.86-.11-.16-.32-.24-.61-.24-.32,0-.55,.11-.69,.32-.13,.21-.2,.58-.2,1.1v2.03h-.98v-4.21Z"/><path d="M120.79,82.48v3.31h-.97v-3.31h-.42v-.91h.42v-1.54h.97v1.54h.76v.91h-.76Z"/><path d="M124.79,79.82c0-.17,.06-.32,.19-.44s.27-.19,.45-.19,.33,.06,.45,.19c.12,.12,.19,.27,.19,.45s-.06,.33-.19,.45c-.12,.12-.27,.19-.45,.19s-.33-.06-.45-.19-.19-.28-.19-.45Zm1.12,1.75v4.21h-.97v-4.21h.97Z"/><path d="M129.6,82.29l-.8,.43c-.13-.26-.28-.39-.47-.39-.09,0-.17,.03-.23,.09s-.1,.13-.1,.23c0,.16,.19,.32,.56,.48,.52,.22,.86,.43,1.04,.61,.18,.19,.27,.44,.27,.76,0,.41-.15,.75-.45,1.02-.29,.26-.64,.39-1.06,.39-.71,0-1.21-.34-1.5-1.03l.83-.38c.12,.2,.2,.33,.26,.38,.12,.11,.26,.16,.42,.16,.33,0,.49-.15,.49-.45,0-.17-.13-.33-.38-.48-.1-.05-.2-.1-.29-.14-.1-.05-.2-.09-.3-.14-.28-.14-.48-.28-.6-.42-.15-.18-.22-.4-.22-.68,0-.37,.13-.67,.38-.91,.26-.24,.57-.36,.94-.36,.54,0,.94,.28,1.2,.83Z"/><path d="M134.67,79.11v6.68h-1.01v-6.68h1.01Z"/><path d="M136.09,81.58h.98v.39c.34-.34,.72-.51,1.15-.51,.49,0,.87,.15,1.15,.46,.24,.26,.36,.69,.36,1.29v2.58h-.98v-2.35c0-.42-.06-.7-.17-.86-.11-.16-.32-.24-.61-.24-.32,0-.55,.11-.69,.32-.13,.21-.2,.58-.2,1.1v2.03h-.98v-4.21Z"/><path d="M140.8,79.82c0-.17,.06-.32,.19-.44s.27-.19,.45-.19,.33,.06,.45,.19c.12,.12,.19,.27,.19,.45s-.06,.33-.19,.45c-.12,.12-.27,.19-.45,.19s-.33-.06-.45-.19-.19-.28-.19-.45Zm1.12,1.75v4.21h-.97v-4.21h.97Z"/><path d="M144.16,82.48v3.31h-.97v-3.31h-.42v-.91h.42v-1.54h.97v1.54h.76v.91h-.76Z"/><path d="M145.43,79.82c0-.17,.06-.32,.19-.44s.27-.19,.45-.19,.33,.06,.45,.19c.12,.12,.19,.27,.19,.45s-.06,.33-.19,.45c-.12,.12-.27,.19-.45,.19s-.33-.06-.45-.19-.19-.28-.19-.45Zm1.12,1.75v4.21h-.97v-4.21h.97Z"/><path d="M150.89,81.58h.98v4.21h-.98v-.44c-.4,.38-.83,.56-1.29,.56-.58,0-1.06-.21-1.45-.63-.38-.43-.57-.97-.57-1.61s.19-1.16,.57-1.58c.38-.42,.85-.63,1.42-.63,.49,0,.93,.2,1.32,.61v-.49Zm-2.31,2.09c0,.4,.11,.73,.33,.99,.22,.26,.5,.39,.84,.39,.36,0,.65-.12,.87-.37,.22-.26,.33-.58,.33-.98s-.11-.72-.33-.98c-.22-.25-.51-.38-.87-.38-.33,0-.61,.13-.84,.38-.22,.26-.33,.57-.33,.95Z"/><path d="M154.07,78.48v7.31h-.97v-7.31h.97Z"/><path d="M155.16,79.82c0-.17,.06-.32,.19-.44s.27-.19,.45-.19,.33,.06,.45,.19c.12,.12,.19,.27,.19,.45s-.06,.33-.19,.45c-.12,.12-.27,.19-.45,.19s-.33-.06-.45-.19-.19-.28-.19-.45Zm1.12,1.75v4.21h-.97v-4.21h.97Z"/><path d="M158.91,84.87h2.51v.92h-4.44l2.73-3.31h-2.15v-.91h4.08l-2.73,3.3Z"/><path d="M165.44,81.58h.98v4.21h-.98v-.44c-.4,.38-.83,.56-1.29,.56-.58,0-1.06-.21-1.45-.63-.38-.43-.57-.97-.57-1.61s.19-1.16,.57-1.58c.38-.42,.85-.63,1.42-.63,.49,0,.93,.2,1.32,.61v-.49Zm-2.31,2.09c0,.4,.11,.73,.33,.99,.22,.26,.5,.39,.84,.39,.36,0,.65-.12,.87-.37,.22-.26,.33-.58,.33-.98s-.11-.72-.33-.98c-.22-.25-.51-.38-.87-.38-.33,0-.61,.13-.84,.38-.22,.26-.33,.57-.33,.95Z"/><path d="M168.62,78.48v3.58c.39-.4,.83-.61,1.32-.61,.57,0,1.04,.21,1.42,.64,.38,.42,.57,.95,.57,1.58s-.19,1.19-.57,1.61c-.38,.42-.86,.63-1.43,.63-.49,0-.92-.19-1.31-.56v.44h-.97v-7.31h.97Zm2.32,5.23c0-.4-.11-.73-.33-.99-.22-.26-.5-.39-.83-.39-.36,0-.65,.13-.87,.38-.22,.25-.33,.57-.33,.97s.11,.74,.33,.98c.22,.25,.51,.38,.87,.38,.34,0,.62-.13,.84-.38,.22-.25,.34-.57,.34-.95Z"/><path d="M173.93,78.48v7.31h-.97v-7.31h.97Z"/><path d="M179,83.91h-3.02c.03,.35,.14,.62,.34,.83,.2,.2,.45,.3,.77,.3,.24,0,.44-.06,.6-.17,.16-.12,.33-.33,.53-.64l.82,.46c-.13,.22-.26,.4-.4,.56s-.29,.28-.45,.38c-.16,.1-.34,.17-.52,.22-.19,.05-.39,.07-.61,.07-.63,0-1.13-.2-1.51-.61-.38-.41-.57-.95-.57-1.62s.18-1.21,.55-1.62c.37-.41,.87-.61,1.48-.61s1.11,.2,1.47,.59c.36,.39,.54,.94,.54,1.63v.23Zm-1-.8c-.14-.52-.46-.78-.98-.78-.12,0-.23,.02-.33,.05-.1,.04-.2,.09-.28,.16-.09,.07-.16,.15-.22,.24s-.11,.2-.14,.32h1.96Z"/><path d="M184.9,79.3h-.12c-.26,0-.43,.05-.51,.15s-.12,.31-.12,.63v1.74c0,.31-.04,.56-.12,.75-.08,.17-.24,.32-.48,.46,.4,.24,.61,.56,.61,.96v1.96c0,.33,.04,.54,.12,.65,.08,.1,.25,.16,.51,.16h.12v.87h-.25l-.31,.02c-.42,0-.73-.11-.91-.34-.19-.23-.28-.6-.28-1.12v-2.13c0-.15-.05-.28-.15-.4-.1-.12-.24-.2-.41-.24v-.83c.2-.05,.35-.13,.43-.26s.13-.32,.13-.57v-1.93c0-.49,.09-.85,.27-1.08,.18-.22,.48-.34,.88-.34h.33l.25,.02v.87Z"/><path d="M64.55,89.04l.8,.35-3.83,8.85-.8-.36,3.82-8.85Z"/><path d="M69.14,89.04l.8,.35-3.83,8.85-.8-.36,3.82-8.85Z"/><path d="M76.43,89.12h.98v7.31h-.98v-.44c-.38,.38-.82,.56-1.3,.56-.58,0-1.06-.21-1.44-.63-.38-.43-.57-.97-.57-1.61s.19-1.15,.57-1.58c.38-.42,.85-.64,1.41-.64,.49,0,.93,.2,1.32,.61v-3.58Zm-2.31,5.19c0,.4,.11,.73,.32,.99,.22,.26,.5,.39,.84,.39,.36,0,.65-.12,.87-.37,.22-.26,.33-.58,.33-.98s-.11-.72-.33-.98c-.22-.25-.51-.38-.87-.38-.33,0-.61,.13-.84,.38-.22,.26-.33,.57-.33,.95Z"/><path d="M82.48,94.55h-3.02c.03,.35,.14,.62,.34,.83,.2,.2,.45,.3,.77,.3,.24,0,.44-.06,.6-.17,.16-.12,.33-.33,.53-.64l.82,.46c-.13,.22-.26,.4-.4,.56-.14,.15-.29,.28-.45,.38s-.34,.17-.52,.22c-.19,.05-.39,.07-.61,.07-.63,0-1.13-.2-1.51-.61-.38-.41-.57-.95-.57-1.62s.18-1.21,.55-1.62c.37-.41,.87-.61,1.48-.61s1.11,.2,1.47,.59c.36,.39,.54,.94,.54,1.63v.23Zm-1-.8c-.14-.52-.46-.78-.98-.78-.12,0-.23,.02-.33,.05-.1,.04-.2,.09-.28,.16s-.16,.15-.22,.24-.11,.2-.14,.32h1.96Z"/><path d="M84.55,93.12v3.31h-.98v-3.31h-.35v-.91h.35v-1.63c0-.53,.09-.91,.28-1.12,.25-.31,.62-.46,1.11-.46,.17,0,.39,.05,.65,.15v1l-.1-.05c-.21-.11-.38-.16-.52-.16-.17,0-.29,.06-.35,.19-.06,.12-.09,.35-.09,.7v1.39h1.06v.91h-1.06Z"/><path d="M86.21,90.46c0-.17,.06-.32,.19-.44s.27-.19,.45-.19,.33,.06,.45,.19c.12,.12,.19,.27,.19,.45s-.06,.33-.19,.45c-.12,.12-.27,.19-.45,.19s-.33-.06-.45-.19-.19-.28-.19-.45Zm1.12,1.75v4.21h-.97v-4.21h.97Z"/><path d="M88.57,92.21h.98v.39c.34-.34,.72-.51,1.15-.51,.49,0,.87,.15,1.15,.46,.24,.26,.35,.69,.35,1.29v2.58h-.98v-2.35c0-.42-.06-.7-.17-.86-.11-.16-.32-.24-.61-.24-.32,0-.55,.11-.69,.32-.13,.21-.2,.58-.2,1.1v2.03h-.98v-4.21Z"/><path d="M97.26,94.55h-3.02c.03,.35,.14,.62,.34,.83,.2,.2,.45,.3,.77,.3,.24,0,.44-.06,.6-.17,.16-.12,.33-.33,.53-.64l.82,.46c-.13,.22-.26,.4-.4,.56-.14,.15-.29,.28-.45,.38s-.34,.17-.52,.22c-.19,.05-.39,.07-.61,.07-.63,0-1.13-.2-1.51-.61-.38-.41-.57-.95-.57-1.62s.18-1.21,.55-1.62c.37-.41,.87-.61,1.48-.61s1.11,.2,1.47,.59c.36,.39,.54,.94,.54,1.63v.23Zm-1-.8c-.14-.52-.46-.78-.98-.78-.12,0-.23,.02-.33,.05-.1,.04-.2,.09-.28,.16s-.16,.15-.22,.24-.11,.2-.14,.32h1.96Z"/><path d="M102.04,92.21v2.42c0,.7,.28,1.05,.83,1.05s.83-.35,.83-1.05v-2.42h.97v2.44c0,.34-.04,.63-.13,.87-.08,.22-.22,.42-.42,.59-.33,.29-.75,.43-1.25,.43s-.92-.14-1.25-.43c-.2-.18-.34-.37-.43-.59-.08-.2-.12-.49-.12-.87v-2.44h.97Z"/><path d="M108.34,92.93l-.8,.43c-.13-.26-.28-.39-.47-.39-.09,0-.17,.03-.23,.09s-.1,.13-.1,.23c0,.16,.19,.32,.56,.48,.52,.22,.86,.43,1.04,.61,.18,.19,.27,.44,.27,.76,0,.41-.15,.75-.45,1.02-.29,.26-.64,.39-1.06,.39-.71,0-1.21-.34-1.5-1.03l.83-.38c.12,.2,.2,.33,.26,.38,.12,.11,.26,.16,.42,.16,.33,0,.49-.15,.49-.45,0-.17-.13-.33-.38-.48-.1-.05-.2-.1-.29-.14-.1-.05-.2-.09-.3-.14-.28-.14-.48-.28-.6-.42-.15-.18-.22-.4-.22-.68,0-.37,.13-.67,.38-.91,.26-.24,.57-.36,.94-.36,.54,0,.94,.28,1.2,.83Z"/><path d="M113.33,94.55h-3.02c.03,.35,.14,.62,.34,.83,.2,.2,.45,.3,.77,.3,.24,0,.44-.06,.6-.17,.16-.12,.33-.33,.53-.64l.82,.46c-.13,.22-.26,.4-.4,.56-.14,.15-.29,.28-.45,.38s-.34,.17-.52,.22c-.19,.05-.39,.07-.61,.07-.63,0-1.13-.2-1.51-.61-.38-.41-.57-.95-.57-1.62s.18-1.21,.55-1.62c.37-.41,.87-.61,1.48-.61s1.11,.2,1.47,.59c.36,.39,.54,.94,.54,1.63v.23Zm-1-.8c-.14-.52-.46-.78-.98-.78-.12,0-.23,.02-.33,.05-.1,.04-.2,.09-.28,.16s-.16,.15-.22,.24-.11,.2-.14,.32h1.96Z"/><path d="M117.5,89.12h.98v7.31h-.98v-.44c-.38,.38-.82,.56-1.3,.56-.58,0-1.06-.21-1.44-.63-.38-.43-.57-.97-.57-1.61s.19-1.15,.57-1.58c.38-.42,.85-.64,1.41-.64,.49,0,.93,.2,1.32,.61v-3.58Zm-2.31,5.19c0,.4,.11,.73,.32,.99,.22,.26,.5,.39,.84,.39,.36,0,.65-.12,.87-.37,.22-.26,.33-.58,.33-.98s-.11-.72-.33-.98c-.22-.25-.51-.38-.87-.38-.33,0-.61,.13-.84,.38-.22,.26-.33,.57-.33,.95Z"/><path d="M123.41,89.12v7.31h-.97v-7.31h.97Z"/><path d="M124.5,90.46c0-.17,.06-.32,.19-.44s.27-.19,.45-.19,.33,.06,.45,.19c.12,.12,.19,.27,.19,.45s-.06,.33-.19,.45c-.12,.12-.27,.19-.45,.19s-.33-.06-.45-.19-.19-.28-.19-.45Zm1.12,1.75v4.21h-.97v-4.21h.97Z"/><path d="M127.83,89.12v3.58c.39-.4,.83-.61,1.32-.61,.57,0,1.04,.21,1.42,.64,.38,.42,.57,.95,.57,1.58s-.19,1.19-.57,1.61c-.38,.42-.86,.63-1.43,.63-.49,0-.92-.19-1.31-.56v.44h-.97v-7.31h.97Zm2.32,5.23c0-.4-.11-.73-.33-.99-.22-.26-.5-.39-.83-.39-.36,0-.65,.13-.87,.38-.22,.25-.33,.57-.33,.97s.11,.74,.33,.98c.22,.25,.51,.38,.87,.38,.34,0,.62-.13,.84-.38,.22-.25,.34-.57,.34-.95Z"/><path d="M134.62,92.93l-.8,.43c-.13-.26-.28-.39-.47-.39-.09,0-.17,.03-.23,.09s-.09,.13-.09,.23c0,.16,.19,.32,.56,.48,.52,.22,.86,.43,1.04,.61,.18,.19,.27,.44,.27,.76,0,.41-.15,.75-.45,1.02-.29,.26-.64,.39-1.06,.39-.71,0-1.21-.34-1.5-1.03l.83-.38c.12,.2,.2,.33,.26,.38,.12,.11,.26,.16,.42,.16,.33,0,.49-.15,.49-.45,0-.17-.13-.33-.38-.48-.1-.05-.2-.1-.29-.14-.1-.05-.2-.09-.3-.14-.28-.14-.48-.28-.6-.42-.15-.18-.22-.4-.22-.68,0-.37,.12-.67,.38-.91,.26-.24,.57-.36,.93-.36,.54,0,.94,.28,1.2,.83Z"/><path d="M62.38,102.84v2.42c0,.7,.28,1.05,.83,1.05s.83-.35,.83-1.05v-2.42h.97v2.44c0,.34-.04,.63-.13,.87-.08,.22-.22,.42-.42,.59-.33,.29-.75,.43-1.25,.43s-.92-.14-1.25-.43c-.2-.18-.34-.37-.43-.59-.08-.2-.12-.49-.12-.87v-2.44h.97Z"/><path d="M68.69,103.56l-.8,.43c-.13-.26-.28-.39-.47-.39-.09,0-.17,.03-.23,.09s-.1,.13-.1,.23c0,.16,.19,.32,.56,.48,.52,.22,.86,.43,1.04,.61,.18,.19,.27,.44,.27,.76,0,.41-.15,.75-.45,1.02-.29,.26-.64,.39-1.06,.39-.71,0-1.21-.34-1.5-1.03l.83-.38c.12,.2,.2,.33,.26,.38,.12,.11,.26,.16,.42,.16,.33,0,.49-.15,.49-.45,0-.17-.13-.33-.38-.48-.1-.05-.2-.1-.29-.14-.1-.05-.2-.09-.3-.14-.28-.14-.48-.28-.6-.42-.15-.18-.22-.4-.22-.68,0-.37,.13-.67,.38-.91,.26-.24,.57-.36,.94-.36,.54,0,.94,.28,1.2,.83Z"/><path d="M69.69,101.09c0-.17,.06-.32,.19-.44s.27-.19,.45-.19,.33,.06,.45,.19c.12,.12,.19,.27,.19,.45s-.06,.33-.19,.45c-.12,.12-.27,.19-.45,.19s-.33-.06-.45-.19-.19-.28-.19-.45Zm1.12,1.75v4.21h-.97v-4.21h.97Z"/><path d="M72.04,102.84h.98v.39c.34-.34,.72-.51,1.15-.51,.49,0,.87,.15,1.15,.46,.24,.26,.35,.69,.35,1.29v2.58h-.98v-2.35c0-.42-.06-.7-.17-.86-.11-.16-.32-.24-.61-.24-.32,0-.55,.11-.69,.32-.13,.21-.2,.58-.2,1.1v2.03h-.98v-4.21Z"/><path d="M80.98,106.96c0,.2,0,.37-.02,.53-.01,.15-.03,.28-.05,.4-.07,.32-.2,.59-.41,.82-.38,.44-.9,.66-1.57,.66-.56,0-1.03-.15-1.39-.45-.38-.31-.59-.74-.65-1.29h.98c.04,.21,.1,.37,.19,.48,.2,.26,.5,.39,.88,.39,.71,0,1.07-.44,1.07-1.31v-.59c-.39,.4-.83,.59-1.34,.59-.57,0-1.04-.21-1.41-.62-.37-.42-.55-.95-.55-1.58s.17-1.14,.51-1.57c.37-.46,.86-.68,1.46-.68,.53,0,.97,.2,1.32,.59v-.48h.97v4.11Zm-.93-2c0-.41-.11-.74-.33-.98-.22-.25-.51-.38-.85-.38-.37,0-.66,.14-.87,.41-.19,.25-.29,.56-.29,.95s.1,.7,.29,.94c.21,.27,.5,.4,.87,.4s.67-.14,.88-.41c.2-.25,.3-.56,.3-.94Z"/><path d="M88.91,101.37l-.82,.48c-.15-.27-.3-.44-.44-.52-.14-.09-.33-.14-.56-.14-.28,0-.51,.08-.7,.24-.18,.16-.28,.35-.28,.59,0,.33,.24,.59,.73,.79l.67,.27c.54,.22,.94,.49,1.19,.8s.38,.7,.38,1.16c0,.61-.2,1.12-.61,1.52-.41,.4-.92,.61-1.54,.61s-1.06-.17-1.44-.51c-.37-.34-.6-.83-.7-1.45l1.02-.23c.05,.39,.13,.66,.24,.81,.21,.29,.51,.43,.91,.43,.31,0,.58-.1,.78-.32,.21-.21,.31-.48,.31-.8,0-.13-.02-.25-.05-.36-.04-.11-.09-.21-.17-.3-.08-.09-.18-.18-.3-.25-.12-.08-.27-.16-.43-.23l-.64-.27c-.91-.39-1.37-.95-1.37-1.7,0-.5,.19-.92,.58-1.26,.38-.34,.86-.51,1.43-.51,.77,0,1.37,.38,1.8,1.12Z"/><path d="M93.21,102.84h.98v4.21h-.98v-.44c-.4,.38-.83,.56-1.29,.56-.58,0-1.06-.21-1.44-.63-.38-.43-.57-.97-.57-1.61s.19-1.16,.57-1.58c.38-.42,.85-.63,1.42-.63,.49,0,.93,.2,1.32,.61v-.49Zm-2.31,2.09c0,.4,.11,.73,.32,.99,.22,.26,.5,.39,.84,.39,.36,0,.65-.12,.87-.37,.22-.26,.33-.58,.33-.98s-.11-.72-.33-.98c-.22-.25-.51-.38-.87-.38-.33,0-.61,.13-.84,.38-.22,.26-.33,.57-.33,.95Z"/><path d="M96.43,103.75v3.31h-.98v-3.31h-.35v-.91h.35v-1.63c0-.53,.09-.91,.28-1.12,.25-.31,.62-.46,1.11-.46,.17,0,.39,.05,.65,.15v1l-.1-.05c-.21-.11-.38-.16-.52-.16-.17,0-.29,.06-.35,.19-.06,.12-.09,.35-.09,.7v1.39h1.06v.91h-1.06Z"/><path d="M102.02,105.18h-3.02c.03,.35,.14,.62,.34,.83,.2,.2,.45,.3,.77,.3,.24,0,.44-.06,.6-.17,.16-.12,.33-.33,.53-.64l.82,.46c-.13,.22-.26,.4-.4,.56-.14,.15-.29,.28-.45,.38s-.34,.17-.52,.22c-.19,.05-.39,.07-.61,.07-.63,0-1.13-.2-1.51-.61-.38-.41-.57-.95-.57-1.62s.18-1.21,.55-1.62c.37-.41,.87-.61,1.48-.61s1.11,.2,1.47,.59c.36,.39,.54,.94,.54,1.63v.23Zm-1-.8c-.14-.52-.46-.78-.98-.78-.12,0-.23,.02-.33,.05-.1,.04-.2,.09-.28,.16s-.16,.15-.22,.24-.11,.2-.14,.32h1.96Z"/><path d="M103.04,107.06l1.41-7.18,2.29,5.19,2.38-5.19,1.26,7.18h-1.03l-.64-4.03-1.98,4.34-1.92-4.34-.72,4.04h-1.04Z"/><path d="M114.72,102.84h.98v4.21h-.98v-.44c-.4,.38-.83,.56-1.29,.56-.58,0-1.06-.21-1.44-.63-.38-.43-.57-.97-.57-1.61s.19-1.16,.57-1.58c.38-.42,.85-.63,1.42-.63,.49,0,.93,.2,1.32,.61v-.49Zm-2.31,2.09c0,.4,.11,.73,.32,.99,.22,.26,.5,.39,.84,.39,.36,0,.65-.12,.87-.37,.22-.26,.33-.58,.33-.98s-.11-.72-.33-.98c-.22-.25-.51-.38-.87-.38-.33,0-.61,.13-.84,.38-.22,.26-.33,.57-.33,.95Z"/><path d="M117.93,103.75v3.31h-.97v-3.31h-.42v-.91h.42v-1.54h.97v1.54h.76v.91h-.76Z"/><path d="M119.52,99.75h.97v3.44c.35-.31,.73-.47,1.15-.47,.48,0,.86,.15,1.14,.46,.24,.27,.36,.7,.36,1.29v2.58h-.97v-2.49c0-.34-.06-.58-.18-.73-.12-.15-.31-.23-.58-.23-.34,0-.58,.11-.72,.32-.14,.21-.2,.58-.2,1.1v2.04h-.97v-7.31Z"/><path d="M128.12,103.75v3.31h-.98v-3.31h-.35v-.91h.35v-1.63c0-.53,.09-.91,.28-1.12,.25-.31,.62-.46,1.11-.46,.17,0,.39,.05,.65,.15v1l-.1-.05c-.21-.11-.38-.16-.52-.16-.17,0-.29,.06-.35,.19-.06,.12-.09,.35-.09,.7v1.39h1.06v.91h-1.06Z"/><path d="M129.66,104.92c0-.61,.22-1.13,.65-1.55s.97-.64,1.59-.64,1.16,.21,1.6,.64c.43,.43,.65,.96,.65,1.58s-.22,1.16-.65,1.59c-.44,.42-.98,.64-1.61,.64s-1.16-.22-1.59-.65c-.43-.43-.64-.96-.64-1.61Zm1,.02c0,.42,.11,.75,.34,1,.23,.25,.54,.37,.91,.37s.68-.12,.91-.37c.23-.25,.34-.57,.34-.98s-.11-.74-.34-.98c-.23-.25-.54-.37-.91-.37s-.67,.12-.9,.37c-.23,.25-.35,.57-.35,.96Z"/><path d="M135.18,102.84h.97v.38c.18-.19,.34-.32,.48-.39,.14-.07,.31-.11,.5-.11,.26,0,.53,.08,.81,.25l-.45,.89c-.18-.13-.36-.2-.54-.2-.53,0-.8,.4-.8,1.2v2.19h-.97v-4.21Z"/><path d="M142.2,102.84v2.42c0,.7,.28,1.05,.83,1.05s.83-.35,.83-1.05v-2.42h.97v2.44c0,.34-.04,.63-.13,.87-.08,.22-.22,.42-.42,.59-.33,.29-.75,.43-1.25,.43s-.92-.14-1.25-.43c-.2-.18-.34-.37-.43-.59-.08-.2-.12-.49-.12-.87v-2.44h.97Z"/><path d="M145.91,101.09c0-.17,.06-.32,.19-.44s.27-.19,.45-.19,.33,.06,.45,.19c.12,.12,.19,.27,.19,.45s-.06,.33-.19,.45c-.12,.12-.27,.19-.45,.19s-.33-.06-.45-.19-.19-.28-.19-.45Zm1.12,1.75v4.21h-.97v-4.21h.97Z"/><path d="M148.27,102.84h.98v.39c.34-.34,.72-.51,1.15-.51,.49,0,.87,.15,1.15,.46,.24,.26,.36,.69,.36,1.29v2.58h-.98v-2.35c0-.42-.06-.7-.17-.86-.11-.16-.32-.24-.61-.24-.32,0-.55,.11-.69,.32-.13,.21-.2,.58-.2,1.1v2.03h-.98v-4.21Z"/><path d="M154.13,103.75v3.31h-.97v-3.31h-.42v-.91h.42v-1.54h.97v1.54h.76v.91h-.76Z"/><path d="M157.15,106.11h2.49v.95h-4.49l2.32-2.81c.23-.28,.42-.52,.57-.73,.15-.2,.27-.38,.35-.51,.16-.27,.25-.52,.25-.73,0-.31-.11-.57-.33-.78-.22-.21-.49-.32-.81-.32-.67,0-1.06,.4-1.16,1.2h-1c.16-1.41,.87-2.11,2.13-2.11,.61,0,1.12,.19,1.53,.58,.42,.39,.62,.87,.62,1.44,0,.36-.1,.72-.29,1.07-.1,.18-.24,.4-.43,.65-.19,.25-.43,.54-.72,.89l-1.04,1.23Z"/><path d="M165.06,101.32h-2.06l-.33,1.11s.1-.01,.14-.01c.04,0,.09,0,.12,0,.65,0,1.18,.22,1.6,.66,.42,.44,.63,.99,.63,1.67s-.24,1.28-.71,1.74c-.47,.46-1.07,.68-1.79,.68-.89,0-1.58-.42-2.09-1.25l.76-.64c.21,.36,.42,.61,.64,.76,.21,.14,.47,.22,.78,.22,.4,0,.74-.14,1.02-.42,.27-.29,.41-.64,.41-1.06s-.14-.78-.41-1.05c-.27-.28-.61-.42-1.02-.42-.45,0-.84,.2-1.17,.59h-.33l1.05-3.51h2.76v.94Z"/><path d="M169.35,100.14l.74,.55-1.6,2.17c.09-.01,.16-.02,.22-.03s.11,0,.14,0c.54,0,1.01,.21,1.41,.62,.39,.41,.59,.9,.59,1.48,0,.61-.22,1.14-.66,1.57-.44,.44-.96,.65-1.57,.65s-1.14-.21-1.59-.65c-.45-.43-.67-.94-.67-1.53,0-.53,.22-1.09,.65-1.68l2.34-3.17Zm.52,4.86c0-.35-.12-.65-.37-.9-.25-.25-.55-.37-.9-.37s-.65,.12-.9,.37-.37,.54-.37,.89,.12,.65,.37,.89,.54,.37,.9,.37,.64-.12,.89-.37,.37-.54,.37-.88Z"/><path d="M172.56,105.81l.87,.34-1.23,2.47-.66-.27,1.03-2.54Zm-.24-2.48c0-.16,.06-.3,.18-.42s.26-.18,.42-.18,.31,.06,.42,.18c.12,.12,.18,.26,.18,.42s-.06,.31-.18,.43c-.12,.12-.26,.17-.42,.17s-.31-.06-.43-.18c-.12-.12-.17-.26-.17-.43Z"/><path d="M62.38,113.48v2.42c0,.7,.28,1.05,.83,1.05s.83-.35,.83-1.05v-2.42h.97v2.44c0,.34-.04,.63-.13,.87-.08,.22-.22,.42-.42,.59-.33,.29-.75,.43-1.25,.43s-.92-.14-1.25-.43c-.2-.18-.34-.37-.43-.59-.08-.2-.12-.49-.12-.87v-2.44h.97Z"/><path d="M68.69,114.2l-.8,.43c-.13-.26-.28-.39-.47-.39-.09,0-.17,.03-.23,.09s-.1,.13-.1,.23c0,.16,.19,.32,.56,.48,.52,.22,.86,.43,1.04,.61,.18,.19,.27,.44,.27,.76,0,.41-.15,.75-.45,1.02-.29,.26-.64,.39-1.06,.39-.71,0-1.21-.34-1.5-1.03l.83-.38c.12,.2,.2,.33,.26,.38,.12,.11,.26,.16,.42,.16,.33,0,.49-.15,.49-.45,0-.17-.13-.33-.38-.48-.1-.05-.2-.1-.29-.14-.1-.05-.2-.09-.3-.14-.28-.14-.48-.28-.6-.42-.15-.18-.22-.4-.22-.68,0-.37,.13-.67,.38-.91,.26-.24,.57-.36,.94-.36,.54,0,.94,.28,1.2,.83Z"/><path d="M69.69,111.72c0-.17,.06-.32,.19-.44s.27-.19,.45-.19,.33,.06,.45,.19c.12,.12,.19,.27,.19,.45s-.06,.33-.19,.45c-.12,.12-.27,.19-.45,.19s-.33-.06-.45-.19-.19-.28-.19-.45Zm1.12,1.75v4.21h-.97v-4.21h.97Z"/><path d="M72.04,113.48h.98v.39c.34-.34,.72-.51,1.15-.51,.49,0,.87,.15,1.15,.46,.24,.26,.35,.69,.35,1.29v2.58h-.98v-2.35c0-.42-.06-.7-.17-.86-.11-.16-.32-.24-.61-.24-.32,0-.55,.11-.69,.32-.13,.21-.2,.58-.2,1.1v2.03h-.98v-4.21Z"/><path d="M80.98,117.59c0,.2,0,.37-.02,.53-.01,.15-.03,.28-.05,.4-.07,.32-.2,.59-.41,.82-.38,.44-.9,.66-1.57,.66-.56,0-1.03-.15-1.39-.45-.38-.31-.59-.74-.65-1.29h.98c.04,.21,.1,.37,.19,.48,.2,.26,.5,.39,.88,.39,.71,0,1.07-.44,1.07-1.31v-.59c-.39,.4-.83,.59-1.34,.59-.57,0-1.04-.21-1.41-.62-.37-.42-.55-.95-.55-1.58s.17-1.14,.51-1.57c.37-.46,.86-.68,1.46-.68,.53,0,.97,.2,1.32,.59v-.48h.97v4.11Zm-.93-2c0-.41-.11-.74-.33-.98-.22-.25-.51-.38-.85-.38-.37,0-.66,.14-.87,.41-.19,.25-.29,.56-.29,.95s.1,.7,.29,.94c.21,.27,.5,.4,.87,.4s.67-.14,.88-.41c.2-.25,.3-.56,.3-.94Z"/><path d="M89.05,116.07h-2.86l-.74,1.62h-1.09l3.31-7.1,3.19,7.1h-1.1l-.7-1.62Zm-.41-.95l-.99-2.27-1.04,2.27h2.03Z"/><path d="M94.6,110.38h.98v7.31h-.98v-.44c-.38,.38-.82,.56-1.3,.56-.58,0-1.06-.21-1.44-.63-.38-.43-.57-.97-.57-1.61s.19-1.15,.57-1.58c.38-.42,.85-.64,1.41-.64,.49,0,.93,.2,1.32,.61v-3.58Zm-2.31,5.19c0,.4,.11,.73,.32,.99,.22,.26,.5,.39,.84,.39,.36,0,.65-.12,.87-.37,.22-.26,.33-.58,.33-.98s-.11-.72-.33-.98c-.22-.25-.51-.38-.87-.38-.33,0-.61,.13-.84,.38-.22,.26-.33,.57-.33,.95Z"/><path d="M99.92,110.38h.98v7.31h-.98v-.44c-.38,.38-.82,.56-1.3,.56-.58,0-1.06-.21-1.44-.63-.38-.43-.57-.97-.57-1.61s.19-1.15,.57-1.58c.38-.42,.85-.64,1.41-.64,.49,0,.93,.2,1.32,.61v-3.58Zm-2.31,5.19c0,.4,.11,.73,.32,.99,.22,.26,.5,.39,.84,.39,.36,0,.65-.12,.87-.37,.22-.26,.33-.58,.33-.98s-.11-.72-.33-.98c-.22-.25-.51-.38-.87-.38-.33,0-.61,.13-.84,.38-.22,.26-.33,.57-.33,.95Z"/><path d="M102.12,113.48h.97v.38c.18-.19,.34-.32,.48-.39,.14-.07,.31-.11,.5-.11,.26,0,.52,.08,.8,.25l-.45,.89c-.18-.13-.36-.2-.54-.2-.53,0-.8,.4-.8,1.2v2.19h-.97v-4.21Z"/><path d="M109.22,115.81h-3.02c.03,.35,.14,.62,.34,.83,.2,.2,.45,.3,.77,.3,.24,0,.44-.06,.6-.17,.16-.12,.33-.33,.53-.64l.82,.46c-.13,.22-.26,.4-.4,.56-.14,.15-.29,.28-.45,.38s-.34,.17-.52,.22c-.19,.05-.39,.07-.61,.07-.63,0-1.13-.2-1.51-.61-.38-.41-.57-.95-.57-1.62s.18-1.21,.55-1.62c.37-.41,.87-.61,1.48-.61s1.11,.2,1.47,.59c.36,.39,.54,.94,.54,1.63v.23Zm-1-.8c-.14-.52-.46-.78-.98-.78-.12,0-.23,.02-.33,.05-.1,.04-.2,.09-.28,.16s-.16,.15-.22,.24-.11,.2-.14,.32h1.96Z"/><path d="M112.73,114.2l-.8,.43c-.13-.26-.28-.39-.47-.39-.09,0-.17,.03-.23,.09s-.1,.13-.1,.23c0,.16,.19,.32,.56,.48,.52,.22,.86,.43,1.04,.61,.18,.19,.27,.44,.27,.76,0,.41-.15,.75-.45,1.02-.29,.26-.64,.39-1.06,.39-.71,0-1.21-.34-1.5-1.03l.83-.38c.12,.2,.2,.33,.26,.38,.12,.11,.26,.16,.42,.16,.33,0,.49-.15,.49-.45,0-.17-.13-.33-.38-.48-.1-.05-.2-.1-.29-.14-.1-.05-.2-.09-.3-.14-.28-.14-.48-.28-.6-.42-.15-.18-.22-.4-.22-.68,0-.37,.13-.67,.38-.91,.26-.24,.57-.36,.94-.36,.54,0,.94,.28,1.2,.83Z"/><path d="M116.32,114.2l-.8,.43c-.13-.26-.28-.39-.47-.39-.09,0-.17,.03-.23,.09s-.1,.13-.1,.23c0,.16,.19,.32,.56,.48,.52,.22,.86,.43,1.04,.61,.18,.19,.27,.44,.27,.76,0,.41-.15,.75-.45,1.02-.29,.26-.64,.39-1.06,.39-.71,0-1.21-.34-1.5-1.03l.83-.38c.12,.2,.2,.33,.26,.38,.12,.11,.26,.16,.42,.16,.33,0,.49-.15,.49-.45,0-.17-.13-.33-.38-.48-.1-.05-.2-.1-.29-.14-.1-.05-.2-.09-.3-.14-.28-.14-.48-.28-.6-.42-.15-.18-.22-.4-.22-.68,0-.37,.13-.67,.38-.91,.26-.24,.57-.36,.94-.36,.54,0,.94,.28,1.2,.83Z"/><path d="M121.21,114.39v3.31h-.98v-3.31h-.35v-.91h.35v-1.63c0-.53,.09-.91,.28-1.12,.25-.31,.62-.46,1.11-.46,.17,0,.39,.05,.65,.15v1l-.1-.05c-.21-.11-.38-.16-.52-.16-.17,0-.29,.06-.35,.19-.06,.12-.09,.35-.09,.7v1.39h1.06v.91h-1.06Z"/><path d="M122.75,115.55c0-.61,.22-1.13,.65-1.55s.97-.64,1.59-.64,1.16,.21,1.6,.64c.43,.43,.65,.96,.65,1.58s-.22,1.16-.65,1.59c-.44,.42-.98,.64-1.61,.64s-1.16-.22-1.59-.65c-.43-.43-.64-.96-.64-1.61Zm1,.02c0,.42,.11,.75,.34,1,.23,.25,.54,.37,.91,.37s.69-.12,.91-.37c.23-.25,.34-.57,.34-.98s-.11-.74-.34-.98c-.23-.25-.54-.37-.91-.37s-.67,.12-.9,.37c-.23,.25-.35,.57-.35,.96Z"/><path d="M128.27,113.48h.97v.38c.18-.19,.34-.32,.48-.39,.14-.07,.31-.11,.5-.11,.26,0,.53,.08,.81,.25l-.45,.89c-.18-.13-.36-.2-.54-.2-.53,0-.8,.4-.8,1.2v2.19h-.97v-4.21Z"/><path d="M137.43,113.48h.98v4.21h-.98v-.44c-.4,.38-.83,.56-1.29,.56-.58,0-1.06-.21-1.45-.63-.38-.43-.57-.97-.57-1.61s.19-1.16,.57-1.58c.38-.42,.85-.63,1.42-.63,.49,0,.93,.2,1.32,.61v-.49Zm-2.31,2.09c0,.4,.11,.73,.33,.99,.22,.26,.5,.39,.84,.39,.36,0,.65-.12,.87-.37,.22-.26,.33-.58,.33-.98s-.11-.72-.33-.98c-.22-.25-.51-.38-.87-.38-.33,0-.61,.13-.84,.38-.22,.26-.33,.57-.33,.95Z"/><path d="M142.74,110.38h.98v7.31h-.98v-.44c-.38,.38-.82,.56-1.3,.56-.58,0-1.06-.21-1.44-.63-.38-.43-.57-.97-.57-1.61s.19-1.15,.57-1.58c.38-.42,.85-.64,1.42-.64,.49,0,.93,.2,1.32,.61v-3.58Zm-2.31,5.19c0,.4,.11,.73,.33,.99,.22,.26,.5,.39,.84,.39,.36,0,.65-.12,.87-.37,.22-.26,.33-.58,.33-.98s-.11-.72-.33-.98c-.22-.25-.51-.38-.87-.38-.33,0-.61,.13-.84,.38-.22,.26-.33,.57-.33,.95Z"/><path d="M148.05,110.38h.98v7.31h-.98v-.44c-.38,.38-.82,.56-1.3,.56-.58,0-1.06-.21-1.44-.63-.38-.43-.57-.97-.57-1.61s.19-1.15,.57-1.58c.38-.42,.85-.64,1.42-.64,.49,0,.93,.2,1.32,.61v-3.58Zm-2.31,5.19c0,.4,.11,.73,.33,.99,.22,.26,.5,.39,.84,.39,.36,0,.65-.12,.87-.37,.22-.26,.33-.58,.33-.98s-.11-.72-.33-.98c-.22-.25-.51-.38-.87-.38-.33,0-.61,.13-.84,.38-.22,.26-.33,.57-.33,.95Z"/><path d="M150.26,113.48h.97v.38c.18-.19,.34-.32,.48-.39,.14-.07,.31-.11,.5-.11,.26,0,.53,.08,.81,.25l-.45,.89c-.18-.13-.36-.2-.54-.2-.53,0-.8,.4-.8,1.2v2.19h-.97v-4.21Z"/><path d="M157.35,115.81h-3.02c.03,.35,.14,.62,.34,.83,.2,.2,.45,.3,.77,.3,.24,0,.44-.06,.6-.17,.16-.12,.33-.33,.53-.64l.82,.46c-.13,.22-.26,.4-.4,.56s-.29,.28-.45,.38c-.16,.1-.34,.17-.52,.22-.19,.05-.39,.07-.61,.07-.63,0-1.13-.2-1.51-.61-.38-.41-.57-.95-.57-1.62s.18-1.21,.55-1.62c.37-.41,.87-.61,1.48-.61s1.11,.2,1.47,.59c.36,.39,.54,.94,.54,1.63v.23Zm-1-.8c-.14-.52-.46-.78-.98-.78-.12,0-.23,.02-.33,.05-.1,.04-.2,.09-.28,.16-.09,.07-.16,.15-.22,.24s-.11,.2-.14,.32h1.96Z"/><path d="M160.87,114.2l-.8,.43c-.13-.26-.28-.39-.47-.39-.09,0-.17,.03-.23,.09s-.09,.13-.09,.23c0,.16,.19,.32,.56,.48,.52,.22,.86,.43,1.04,.61,.18,.19,.27,.44,.27,.76,0,.41-.15,.75-.45,1.02-.29,.26-.64,.39-1.06,.39-.71,0-1.21-.34-1.5-1.03l.83-.38c.12,.2,.2,.33,.26,.38,.12,.11,.26,.16,.42,.16,.33,0,.49-.15,.49-.45,0-.17-.13-.33-.38-.48-.1-.05-.2-.1-.29-.14-.1-.05-.2-.09-.3-.14-.28-.14-.48-.28-.6-.42-.15-.18-.22-.4-.22-.68,0-.37,.12-.67,.38-.91,.26-.24,.57-.36,.93-.36,.54,0,.94,.28,1.2,.83Z"/><path d="M164.46,114.2l-.8,.43c-.13-.26-.28-.39-.47-.39-.09,0-.17,.03-.23,.09s-.09,.13-.09,.23c0,.16,.19,.32,.56,.48,.52,.22,.86,.43,1.04,.61,.18,.19,.27,.44,.27,.76,0,.41-.15,.75-.45,1.02-.29,.26-.64,.39-1.06,.39-.71,0-1.21-.34-1.5-1.03l.83-.38c.12,.2,.2,.33,.26,.38,.12,.11,.26,.16,.42,.16,.33,0,.49-.15,.49-.45,0-.17-.13-.33-.38-.48-.1-.05-.2-.1-.29-.14-.1-.05-.2-.09-.3-.14-.28-.14-.48-.28-.6-.42-.15-.18-.22-.4-.22-.68,0-.37,.12-.67,.38-.91,.26-.24,.57-.36,.93-.36,.54,0,.94,.28,1.2,.83Z"/><path d="M166.21,116.44l.87,.34-1.23,2.47-.66-.27,1.03-2.54Zm-.24-2.48c0-.16,.06-.3,.18-.42s.26-.18,.42-.18,.31,.06,.42,.18c.12,.12,.18,.26,.18,.42s-.06,.31-.18,.43c-.12,.12-.26,.17-.42,.17s-.31-.06-.43-.18c-.12-.12-.17-.26-.17-.43Z"/><path d="M62.38,124.11v2.42c0,.7,.28,1.05,.83,1.05s.83-.35,.83-1.05v-2.42h.97v2.44c0,.34-.04,.63-.13,.87-.08,.22-.22,.42-.42,.59-.33,.29-.75,.43-1.25,.43s-.92-.14-1.25-.43c-.2-.18-.34-.37-.43-.59-.08-.2-.12-.49-.12-.87v-2.44h.97Z"/><path d="M68.69,124.83l-.8,.43c-.13-.26-.28-.39-.47-.39-.09,0-.17,.03-.23,.09s-.1,.13-.1,.23c0,.16,.19,.32,.56,.48,.52,.22,.86,.43,1.04,.61,.18,.19,.27,.44,.27,.76,0,.41-.15,.75-.45,1.02-.29,.26-.64,.39-1.06,.39-.71,0-1.21-.34-1.5-1.03l.83-.38c.12,.2,.2,.33,.26,.38,.12,.11,.26,.16,.42,.16,.33,0,.49-.15,.49-.45,0-.17-.13-.33-.38-.48-.1-.05-.2-.1-.29-.14-.1-.05-.2-.09-.3-.14-.28-.14-.48-.28-.6-.42-.15-.18-.22-.4-.22-.68,0-.37,.13-.67,.38-.91,.26-.24,.57-.36,.94-.36,.54,0,.94,.28,1.2,.83Z"/><path d="M69.69,122.36c0-.17,.06-.32,.19-.44s.27-.19,.45-.19,.33,.06,.45,.19c.12,.12,.19,.27,.19,.45s-.06,.33-.19,.45c-.12,.12-.27,.19-.45,.19s-.33-.06-.45-.19-.19-.28-.19-.45Zm1.12,1.75v4.21h-.97v-4.21h.97Z"/><path d="M72.04,124.11h.98v.39c.34-.34,.72-.51,1.15-.51,.49,0,.87,.15,1.15,.46,.24,.26,.35,.69,.35,1.29v2.58h-.98v-2.35c0-.42-.06-.7-.17-.86-.11-.16-.32-.24-.61-.24-.32,0-.55,.11-.69,.32-.13,.21-.2,.58-.2,1.1v2.03h-.98v-4.21Z"/><path d="M80.98,128.23c0,.2,0,.37-.02,.53-.01,.15-.03,.28-.05,.4-.07,.32-.2,.59-.41,.82-.38,.44-.9,.66-1.57,.66-.56,0-1.03-.15-1.39-.45-.38-.31-.59-.74-.65-1.29h.98c.04,.21,.1,.37,.19,.48,.2,.26,.5,.39,.88,.39,.71,0,1.07-.44,1.07-1.31v-.59c-.39,.4-.83,.59-1.34,.59-.57,0-1.04-.21-1.41-.62-.37-.42-.55-.95-.55-1.58s.17-1.14,.51-1.57c.37-.46,.86-.68,1.46-.68,.53,0,.97,.2,1.32,.59v-.48h.97v4.11Zm-.93-2c0-.41-.11-.74-.33-.98-.22-.25-.51-.38-.85-.38-.37,0-.66,.14-.87,.41-.19,.25-.29,.56-.29,.95s.1,.7,.29,.94c.21,.27,.5,.4,.87,.4s.67-.14,.88-.41c.2-.25,.3-.56,.3-.94Z"/><path d="M88.91,122.64l-.82,.48c-.15-.27-.3-.44-.44-.52-.14-.09-.33-.14-.56-.14-.28,0-.51,.08-.7,.24-.18,.16-.28,.35-.28,.59,0,.33,.24,.59,.73,.79l.67,.27c.54,.22,.94,.49,1.19,.8s.38,.7,.38,1.16c0,.61-.2,1.12-.61,1.52-.41,.4-.92,.61-1.54,.61s-1.06-.17-1.44-.51c-.37-.34-.6-.83-.7-1.45l1.02-.23c.05,.39,.13,.66,.24,.81,.21,.29,.51,.43,.91,.43,.31,0,.58-.1,.78-.32,.21-.21,.31-.48,.31-.8,0-.13-.02-.25-.05-.36-.04-.11-.09-.21-.17-.3-.08-.09-.18-.18-.3-.25-.12-.08-.27-.16-.43-.23l-.64-.27c-.91-.39-1.37-.95-1.37-1.7,0-.5,.19-.92,.58-1.26,.38-.34,.86-.51,1.43-.51,.77,0,1.37,.38,1.8,1.12Z"/><path d="M93.21,124.11h.98v4.21h-.98v-.44c-.4,.38-.83,.56-1.29,.56-.58,0-1.06-.21-1.44-.63-.38-.43-.57-.97-.57-1.61s.19-1.16,.57-1.58c.38-.42,.85-.63,1.42-.63,.49,0,.93,.2,1.32,.61v-.49Zm-2.31,2.09c0,.4,.11,.73,.32,.99,.22,.26,.5,.39,.84,.39,.36,0,.65-.12,.87-.37,.22-.26,.33-.58,.33-.98s-.11-.72-.33-.98c-.22-.25-.51-.38-.87-.38-.33,0-.61,.13-.84,.38-.22,.26-.33,.57-.33,.95Z"/><path d="M96.43,125.02v3.31h-.98v-3.31h-.35v-.91h.35v-1.63c0-.53,.09-.91,.28-1.12,.25-.31,.62-.46,1.11-.46,.17,0,.39,.05,.65,.15v1l-.1-.05c-.21-.11-.38-.16-.52-.16-.17,0-.29,.06-.35,.19-.06,.12-.09,.35-.09,.7v1.39h1.06v.91h-1.06Z"/><path d="M102.02,126.45h-3.02c.03,.35,.14,.62,.34,.83,.2,.2,.45,.3,.77,.3,.24,0,.44-.06,.6-.17,.16-.12,.33-.33,.53-.64l.82,.46c-.13,.22-.26,.4-.4,.56-.14,.15-.29,.28-.45,.38s-.34,.17-.52,.22c-.19,.05-.39,.07-.61,.07-.63,0-1.13-.2-1.51-.61-.38-.41-.57-.95-.57-1.62s.18-1.21,.55-1.62c.37-.41,.87-.61,1.48-.61s1.11,.2,1.47,.59c.36,.39,.54,.94,.54,1.63v.23Zm-1-.8c-.14-.52-.46-.78-.98-.78-.12,0-.23,.02-.33,.05-.1,.04-.2,.09-.28,.16s-.16,.15-.22,.24-.11,.2-.14,.32h1.96Z"/><path d="M106.96,122.59h-2.68v1.61h2.6v.95h-2.6v2.23h2.68v.95h-3.69v-6.68h3.69v.95Z"/><path d="M110.55,125.48l2.07,2.85h-1.23l-1.91-2.73h-.18v2.73h-1.01v-6.68h1.18c.88,0,1.52,.17,1.91,.5,.43,.37,.65,.86,.65,1.46,0,.47-.14,.88-.41,1.22-.27,.34-.63,.56-1.07,.65Zm-1.25-.77h.32c.95,0,1.43-.37,1.43-1.09,0-.68-.46-1.03-1.39-1.03h-.36v2.12Z"/><path d="M118.41,122v1.19c-.58-.49-1.19-.73-1.81-.73-.69,0-1.26,.25-1.73,.74-.47,.49-.71,1.09-.71,1.8s.24,1.29,.71,1.77c.47,.48,1.05,.72,1.74,.72,.35,0,.66-.06,.9-.17,.14-.06,.28-.14,.43-.23,.15-.1,.31-.22,.47-.35v1.22c-.58,.33-1.18,.49-1.82,.49-.96,0-1.77-.33-2.44-1-.67-.67-1.01-1.48-1.01-2.43,0-.85,.28-1.61,.84-2.28,.69-.82,1.59-1.22,2.69-1.22,.6,0,1.18,.16,1.74,.49Z"/><path d="M121.1,127.38h2.49v.95h-4.49l2.32-2.81c.23-.28,.42-.52,.57-.73,.15-.2,.27-.38,.35-.51,.16-.27,.25-.52,.25-.73,0-.31-.11-.57-.33-.78s-.49-.32-.81-.32c-.68,0-1.06,.4-1.16,1.2h-1c.16-1.41,.87-2.11,2.13-2.11,.61,0,1.12,.19,1.53,.58,.42,.39,.62,.87,.62,1.44,0,.36-.1,.72-.29,1.07-.1,.18-.24,.4-.43,.65s-.43,.54-.72,.89l-1.04,1.23Z"/><path d="M124.72,124.94c0-1.06,.25-1.91,.74-2.55,.44-.57,.98-.86,1.61-.86s1.17,.29,1.61,.86c.5,.63,.74,1.5,.74,2.59s-.25,1.95-.74,2.59c-.44,.57-.98,.86-1.61,.86s-1.17-.29-1.62-.86c-.5-.63-.74-1.51-.74-2.63Zm.99,0c0,.74,.13,1.36,.39,1.85,.26,.48,.58,.72,.98,.72s.72-.24,.98-.72c.26-.48,.39-1.08,.39-1.81s-.13-1.34-.39-1.82c-.26-.48-.59-.72-.98-.72s-.72,.24-.98,.72c-.26,.48-.39,1.07-.39,1.78Z"/><path d="M134.17,125.02v3.31h-.98v-3.31h-.35v-.91h.35v-1.63c0-.53,.09-.91,.28-1.12,.25-.31,.62-.46,1.11-.46,.17,0,.39,.05,.65,.15v1l-.1-.05c-.21-.11-.38-.16-.52-.16-.17,0-.29,.06-.35,.19-.06,.12-.09,.35-.09,.7v1.39h1.06v.91h-1.06Z"/><path d="M135.71,126.19c0-.61,.22-1.13,.65-1.55s.97-.64,1.59-.64,1.16,.21,1.6,.64c.43,.43,.65,.96,.65,1.58s-.22,1.16-.65,1.59c-.44,.42-.98,.64-1.61,.64s-1.16-.22-1.59-.65c-.43-.43-.64-.96-.64-1.61Zm1,.02c0,.42,.11,.75,.34,1,.23,.25,.54,.37,.91,.37s.68-.12,.91-.37c.23-.25,.34-.57,.34-.98s-.11-.74-.34-.98c-.23-.25-.54-.37-.91-.37s-.67,.12-.9,.37c-.23,.25-.35,.57-.35,.96Z"/><path d="M141.23,124.11h.97v.38c.18-.19,.34-.32,.48-.39,.14-.07,.31-.11,.5-.11,.26,0,.53,.08,.81,.25l-.45,.89c-.18-.13-.36-.2-.54-.2-.53,0-.8,.4-.8,1.2v2.19h-.97v-4.21Z"/><path d="M151.15,122.59h-2.68v1.61h2.6v.95h-2.6v2.23h2.68v.95h-3.69v-6.68h3.69v.95Z"/><path d="M154.74,125.48l2.07,2.85h-1.23l-1.91-2.73h-.18v2.73h-1.01v-6.68h1.18c.88,0,1.52,.17,1.91,.5,.43,.37,.65,.86,.65,1.46,0,.47-.14,.88-.41,1.22-.27,.34-.63,.56-1.07,.65Zm-1.25-.77h.32c.96,0,1.43-.37,1.43-1.09,0-.68-.46-1.03-1.39-1.03h-.36v2.12Z"/><path d="M162.6,122v1.19c-.58-.49-1.19-.73-1.81-.73-.69,0-1.26,.25-1.74,.74-.47,.49-.71,1.09-.71,1.8s.24,1.29,.71,1.77c.47,.48,1.05,.72,1.74,.72,.35,0,.66-.06,.9-.17,.14-.06,.28-.14,.43-.23,.15-.1,.3-.22,.47-.35v1.22c-.58,.33-1.18,.49-1.82,.49-.95,0-1.77-.33-2.44-1-.67-.67-1.01-1.48-1.01-2.43,0-.85,.28-1.61,.84-2.28,.69-.82,1.59-1.22,2.69-1.22,.6,0,1.18,.16,1.74,.49Z"/><path d="M165.29,127.38h2.49v.95h-4.49l2.32-2.81c.23-.28,.42-.52,.57-.73,.15-.2,.27-.38,.35-.51,.16-.27,.25-.52,.25-.73,0-.31-.11-.57-.33-.78-.22-.21-.49-.32-.81-.32-.67,0-1.06,.4-1.16,1.2h-1c.16-1.41,.87-2.11,2.13-2.11,.61,0,1.12,.19,1.53,.58,.42,.39,.62,.87,.62,1.44,0,.36-.1,.72-.29,1.07-.1,.18-.24,.4-.43,.65-.19,.25-.43,.54-.72,.89l-1.04,1.23Z"/><path d="M168.91,124.94c0-1.06,.25-1.91,.75-2.55,.44-.57,.98-.86,1.61-.86s1.17,.29,1.61,.86c.5,.63,.74,1.5,.74,2.59s-.25,1.95-.74,2.59c-.44,.57-.98,.86-1.61,.86s-1.17-.29-1.62-.86c-.5-.63-.75-1.51-.75-2.63Zm.99,0c0,.74,.13,1.36,.38,1.85,.26,.48,.58,.72,.98,.72s.72-.24,.98-.72c.26-.48,.39-1.08,.39-1.81s-.13-1.34-.39-1.82c-.26-.48-.59-.72-.98-.72s-.72,.24-.98,.72c-.26,.48-.39,1.07-.39,1.78Z"/><path d="M175.22,127.07l.87,.34-1.23,2.47-.66-.27,1.03-2.54Zm-.24-2.48c0-.16,.06-.3,.18-.42s.26-.18,.42-.18,.31,.06,.42,.18c.12,.12,.18,.26,.18,.42s-.06,.31-.18,.43c-.12,.12-.26,.17-.42,.17s-.31-.06-.43-.18c-.12-.12-.17-.26-.17-.43Z"/><path d="M51.67,142.91v6.68h-1.01v-6.68h1.01Z"/><path d="M57.2,147.97h-2.86l-.74,1.62h-1.09l3.31-7.1,3.19,7.1h-1.1l-.7-1.62Zm-.41-.95l-.99-2.27-1.04,2.27h2.03Z"/><path d="M60.62,142.28v7.31h-.97v-7.31h.97Z"/><path d="M62.83,151.89h-.97v-6.51h.97v.46c.38-.38,.82-.58,1.31-.58,.58,0,1.06,.21,1.43,.64,.38,.42,.57,.96,.57,1.6s-.19,1.16-.57,1.58c-.38,.42-.85,.63-1.42,.63-.49,0-.93-.2-1.32-.59v2.76Zm2.31-4.37c0-.4-.11-.73-.33-.99-.22-.26-.5-.39-.84-.39-.36,0-.65,.12-.87,.37s-.33,.57-.33,.98,.11,.72,.33,.98c.22,.25,.51,.38,.87,.38,.34,0,.62-.13,.83-.38,.23-.25,.34-.57,.34-.95Z"/><path d="M67.17,142.28h.97v3.44c.35-.31,.73-.47,1.15-.47,.48,0,.86,.15,1.14,.46,.24,.27,.36,.7,.36,1.29v2.58h-.97v-2.49c0-.34-.06-.58-.18-.73s-.31-.23-.58-.23c-.34,0-.58,.11-.72,.32-.14,.21-.2,.58-.2,1.1v2.04h-.97v-7.31Z"/><path d="M71.98,149.59l1.41-7.18,2.29,5.19,2.38-5.19,1.26,7.18h-1.03l-.64-4.03-1.98,4.34-1.92-4.34-.72,4.04h-1.04Z"/><path d="M80.4,143.63c0-.17,.06-.32,.19-.44s.27-.19,.45-.19,.33,.06,.45,.19c.12,.12,.19,.27,.19,.45s-.06,.33-.19,.45c-.12,.12-.27,.19-.45,.19s-.33-.06-.45-.19-.19-.28-.19-.45Zm1.12,1.75v4.21h-.97v-4.21h.97Z"/><path d="M82.76,145.38h.98v.39c.34-.34,.72-.51,1.15-.51,.49,0,.87,.15,1.15,.46,.24,.26,.35,.69,.35,1.29v2.58h-.98v-2.35c0-.42-.06-.7-.17-.86-.11-.16-.32-.24-.61-.24-.32,0-.55,.11-.69,.32-.13,.21-.2,.58-.2,1.1v2.03h-.98v-4.21Z"/><path d="M88.62,146.29v3.31h-.97v-3.31h-.42v-.91h.42v-1.54h.97v1.54h.76v.91h-.76Z"/><path d="M94.15,147.97h-2.86l-.74,1.62h-1.09l3.31-7.1,3.19,7.1h-1.1l-.7-1.62Zm-.41-.95l-.99-2.27-1.04,2.27h2.03Z"/><path d="M99.7,142.28h.98v7.31h-.98v-.44c-.38,.38-.82,.56-1.3,.56-.58,0-1.06-.21-1.44-.63-.38-.43-.57-.97-.57-1.61s.19-1.15,.57-1.58c.38-.42,.85-.64,1.41-.64,.49,0,.93,.2,1.32,.61v-3.58Zm-2.31,5.19c0,.4,.11,.73,.32,.99,.22,.26,.5,.38,.84,.38,.36,0,.65-.12,.87-.37,.22-.26,.33-.58,.33-.98s-.11-.72-.33-.98c-.22-.25-.51-.38-.87-.38-.33,0-.61,.13-.84,.38-.22,.26-.33,.57-.33,.95Z"/><path d="M105.01,142.28h.98v7.31h-.98v-.44c-.38,.38-.82,.56-1.3,.56-.58,0-1.06-.21-1.44-.63-.38-.43-.57-.97-.57-1.61s.19-1.15,.57-1.58c.38-.42,.85-.64,1.41-.64,.49,0,.93,.2,1.32,.61v-3.58Zm-2.31,5.19c0,.4,.11,.73,.32,.99,.22,.26,.5,.38,.84,.38,.36,0,.65-.12,.87-.37,.22-.26,.33-.58,.33-.98s-.11-.72-.33-.98c-.22-.25-.51-.38-.87-.38-.33,0-.61,.13-.84,.38-.22,.26-.33,.57-.33,.95Z"/><path d="M107.22,145.38h.97v.38c.18-.19,.34-.32,.48-.38,.14-.07,.31-.11,.5-.11,.26,0,.52,.08,.8,.25l-.45,.89c-.18-.13-.36-.2-.54-.2-.53,0-.8,.4-.8,1.2v2.19h-.97v-4.21Z"/><path d="M114.31,147.72h-3.02c.03,.35,.14,.62,.34,.83,.2,.2,.45,.3,.77,.3,.24,0,.44-.06,.6-.17,.16-.12,.33-.33,.53-.64l.82,.46c-.13,.22-.26,.4-.4,.56-.14,.15-.29,.28-.45,.38-.16,.1-.34,.17-.52,.22-.19,.05-.39,.07-.61,.07-.63,0-1.13-.2-1.51-.61-.38-.41-.57-.95-.57-1.62s.18-1.21,.55-1.62c.37-.41,.87-.61,1.48-.61s1.11,.2,1.47,.59c.36,.39,.54,.94,.54,1.63v.23Zm-1-.8c-.14-.52-.46-.78-.98-.78-.12,0-.23,.02-.33,.05-.1,.04-.2,.09-.28,.16-.08,.07-.16,.15-.22,.24-.06,.1-.11,.2-.14,.33h1.96Z"/><path d="M117.83,146.1l-.8,.43c-.13-.26-.28-.39-.47-.39-.09,0-.17,.03-.23,.09-.06,.06-.1,.13-.1,.23,0,.16,.19,.32,.56,.48,.52,.22,.86,.43,1.04,.61s.27,.44,.27,.76c0,.41-.15,.75-.45,1.02-.29,.26-.64,.39-1.06,.39-.71,0-1.21-.34-1.5-1.03l.83-.38c.12,.2,.2,.33,.26,.38,.12,.11,.26,.16,.42,.16,.33,0,.49-.15,.49-.45,0-.17-.13-.33-.38-.49-.1-.05-.2-.1-.29-.14-.1-.05-.2-.09-.3-.14-.28-.14-.48-.28-.6-.42-.15-.18-.22-.4-.22-.68,0-.37,.13-.67,.38-.91,.26-.24,.57-.36,.94-.36,.54,0,.94,.28,1.2,.83Z"/><path d="M121.42,146.1l-.8,.43c-.13-.26-.28-.39-.47-.39-.09,0-.17,.03-.23,.09-.06,.06-.1,.13-.1,.23,0,.16,.19,.32,.56,.48,.52,.22,.86,.43,1.04,.61s.27,.44,.27,.76c0,.41-.15,.75-.45,1.02-.29,.26-.64,.39-1.06,.39-.71,0-1.21-.34-1.5-1.03l.83-.38c.12,.2,.2,.33,.26,.38,.12,.11,.26,.16,.42,.16,.33,0,.49-.15,.49-.45,0-.17-.13-.33-.38-.49-.1-.05-.2-.1-.29-.14-.1-.05-.2-.09-.3-.14-.28-.14-.48-.28-.6-.42-.15-.18-.22-.4-.22-.68,0-.37,.13-.67,.38-.91,.26-.24,.57-.36,.94-.36,.54,0,.94,.28,1.2,.83Z"/><path d="M123.76,146.88v2.71h-1.01v-6.68h1.14c.56,0,.98,.04,1.27,.12,.29,.08,.54,.23,.76,.44,.38,.38,.58,.85,.58,1.42,0,.61-.21,1.1-.61,1.45-.41,.36-.96,.54-1.66,.54h-.47Zm0-.93h.38c.93,0,1.39-.36,1.39-1.07s-.48-1.03-1.43-1.03h-.33v2.1Z"/><path d="M127.35,145.38h.97v.38c.18-.19,.34-.32,.48-.38,.14-.07,.31-.11,.5-.11,.26,0,.53,.08,.8,.25l-.45,.89c-.19-.13-.37-.2-.54-.2-.53,0-.8,.4-.8,1.2v2.19h-.97v-4.21Z"/><path d="M130.39,147.46c0-.61,.22-1.13,.65-1.55,.44-.43,.97-.64,1.59-.64s1.16,.21,1.6,.64c.43,.43,.65,.96,.65,1.58s-.22,1.16-.65,1.59c-.44,.42-.98,.64-1.61,.64s-1.16-.22-1.59-.65c-.43-.43-.64-.96-.64-1.61Zm1,.02c0,.42,.11,.75,.34,1,.23,.25,.54,.37,.91,.37s.68-.12,.91-.37c.23-.25,.34-.57,.34-.98s-.11-.74-.34-.98c-.23-.25-.54-.37-.91-.37s-.67,.12-.9,.37-.35,.57-.35,.96Z"/><path d="M136.26,145.38l1.09,2.37,1.09-2.37h1.09l-2.19,4.5-2.17-4.5h1.09Z"/><path d="M140.05,143.63c0-.17,.06-.32,.19-.44s.27-.19,.45-.19,.33,.06,.45,.19c.12,.12,.19,.27,.19,.45s-.06,.33-.19,.45c-.12,.12-.27,.19-.45,.19s-.33-.06-.45-.19-.19-.28-.19-.45Zm1.12,1.75v4.21h-.97v-4.21h.97Z"/><path d="M145.51,142.28h.98v7.31h-.98v-.44c-.38,.38-.82,.56-1.3,.56-.58,0-1.06-.21-1.44-.63-.38-.43-.57-.97-.57-1.61s.19-1.15,.57-1.58c.38-.42,.85-.64,1.42-.64,.49,0,.93,.2,1.32,.61v-3.58Zm-2.31,5.19c0,.4,.11,.73,.33,.99,.22,.26,.5,.38,.84,.38,.36,0,.65-.12,.87-.37,.22-.26,.33-.58,.33-.98s-.11-.72-.33-.98c-.22-.25-.51-.38-.87-.38-.33,0-.61,.13-.84,.38-.22,.26-.33,.57-.33,.95Z"/><path d="M151.55,147.72h-3.02c.03,.35,.14,.62,.34,.83,.2,.2,.45,.3,.77,.3,.24,0,.44-.06,.6-.17,.16-.12,.33-.33,.53-.64l.82,.46c-.13,.22-.26,.4-.4,.56s-.29,.28-.45,.38c-.16,.1-.34,.17-.52,.22s-.39,.07-.61,.07c-.63,0-1.13-.2-1.51-.61-.38-.41-.57-.95-.57-1.62s.18-1.21,.55-1.62c.37-.41,.87-.61,1.48-.61s1.11,.2,1.47,.59c.36,.39,.54,.94,.54,1.63v.23Zm-1-.8c-.14-.52-.46-.78-.98-.78-.12,0-.23,.02-.33,.05-.1,.04-.2,.09-.28,.16-.09,.07-.16,.15-.22,.24-.06,.1-.11,.2-.14,.33h1.96Z"/><path d="M152.62,145.38h.97v.38c.18-.19,.34-.32,.48-.38,.14-.07,.31-.11,.5-.11,.26,0,.53,.08,.81,.25l-.45,.89c-.18-.13-.36-.2-.54-.2-.53,0-.8,.4-.8,1.2v2.19h-.97v-4.21Z"/><path d="M159.64,151.89h-.97v-6.51h.97v.46c.38-.38,.82-.58,1.31-.58,.58,0,1.06,.21,1.43,.64,.38,.42,.57,.96,.57,1.6s-.19,1.16-.57,1.58c-.38,.42-.85,.63-1.42,.63-.49,0-.93-.2-1.32-.59v2.76Zm2.32-4.37c0-.4-.11-.73-.33-.99-.22-.26-.5-.39-.84-.39-.36,0-.65,.12-.87,.37-.22,.25-.33,.57-.33,.98s.11,.72,.33,.98c.22,.25,.51,.38,.87,.38,.34,0,.62-.13,.83-.38,.22-.25,.34-.57,.34-.95Z"/><path d="M164.95,145.38v2.42c0,.7,.28,1.05,.83,1.05s.83-.35,.83-1.05v-2.42h.97v2.44c0,.34-.04,.63-.13,.87-.08,.22-.22,.42-.42,.59-.33,.29-.75,.43-1.25,.43s-.92-.14-1.25-.43c-.2-.18-.34-.37-.43-.59-.08-.2-.12-.49-.12-.87v-2.44h.97Z"/><path d="M169.78,142.28v3.58c.39-.4,.83-.61,1.32-.61,.57,0,1.04,.21,1.42,.64,.38,.42,.57,.95,.57,1.58s-.19,1.19-.57,1.61c-.38,.42-.86,.63-1.43,.63-.49,0-.92-.19-1.31-.56v.44h-.97v-7.31h.97Zm2.32,5.23c0-.4-.11-.73-.33-.99-.22-.26-.5-.39-.83-.39-.36,0-.65,.13-.87,.38-.22,.25-.33,.57-.33,.97s.11,.74,.33,.98c.22,.25,.51,.38,.87,.38,.34,0,.62-.12,.84-.38,.22-.25,.34-.57,.34-.95Z"/><path d="M175.09,142.28v7.31h-.97v-7.31h.97Z"/><path d="M176.18,143.63c0-.17,.06-.32,.19-.44s.27-.19,.45-.19,.33,.06,.45,.19c.12,.12,.19,.27,.19,.45s-.06,.33-.19,.45c-.12,.12-.27,.19-.45,.19s-.33-.06-.45-.19-.19-.28-.19-.45Zm1.12,1.75v4.21h-.97v-4.21h.97Z"/><path d="M181.81,145.56v1.29c-.22-.27-.42-.46-.6-.56-.17-.1-.38-.16-.61-.16-.37,0-.67,.13-.91,.39-.24,.26-.36,.58-.36,.96s.12,.72,.35,.97c.24,.25,.54,.38,.9,.38,.23,0,.44-.05,.62-.15,.17-.1,.38-.29,.61-.57v1.28c-.4,.21-.79,.31-1.19,.31-.65,0-1.2-.21-1.64-.63-.44-.42-.66-.95-.66-1.58s.22-1.16,.67-1.59,.99-.65,1.64-.65c.42,0,.81,.1,1.18,.3Z"/><path d="M188.6,145.38h.98v4.21h-.98v-.44c-.4,.38-.83,.56-1.29,.56-.58,0-1.06-.21-1.45-.63-.38-.43-.57-.97-.57-1.61s.19-1.16,.57-1.58c.38-.42,.85-.63,1.42-.63,.49,0,.93,.2,1.32,.61v-.49Zm-2.31,2.09c0,.4,.11,.73,.33,.99,.22,.26,.5,.38,.84,.38,.36,0,.65-.12,.87-.37,.22-.26,.33-.58,.33-.98s-.11-.72-.33-.98c-.22-.25-.51-.38-.87-.38-.33,0-.61,.13-.84,.38-.22,.26-.33,.57-.33,.95Z"/><path d="M193.91,142.28h.98v7.31h-.98v-.44c-.38,.38-.82,.56-1.3,.56-.58,0-1.06-.21-1.44-.63-.38-.43-.57-.97-.57-1.61s.19-1.15,.57-1.58c.38-.42,.85-.64,1.42-.64,.49,0,.93,.2,1.32,.61v-3.58Zm-2.31,5.19c0,.4,.11,.73,.33,.99,.22,.26,.5,.38,.84,.38,.36,0,.65-.12,.87-.37,.22-.26,.33-.58,.33-.98s-.11-.72-.33-.98c-.22-.25-.51-.38-.87-.38-.33,0-.61,.13-.84,.38-.22,.26-.33,.57-.33,.95Z"/><path d="M199.23,142.28h.98v7.31h-.98v-.44c-.38,.38-.82,.56-1.3,.56-.58,0-1.06-.21-1.44-.63-.38-.43-.57-.97-.57-1.61s.19-1.15,.57-1.58c.38-.42,.85-.64,1.42-.64,.49,0,.93,.2,1.32,.61v-3.58Zm-2.31,5.19c0,.4,.11,.73,.33,.99,.22,.26,.5,.38,.84,.38,.36,0,.65-.12,.87-.37,.22-.26,.33-.58,.33-.98s-.11-.72-.33-.98c-.22-.25-.51-.38-.87-.38-.33,0-.61,.13-.84,.38-.22,.26-.33,.57-.33,.95Z"/><path d="M201.43,145.38h.97v.38c.18-.19,.34-.32,.48-.38,.14-.07,.31-.11,.5-.11,.26,0,.53,.08,.81,.25l-.45,.89c-.18-.13-.36-.2-.54-.2-.53,0-.8,.4-.8,1.2v2.19h-.97v-4.21Z"/><path d="M208.52,147.72h-3.02c.03,.35,.14,.62,.34,.83,.2,.2,.45,.3,.77,.3,.24,0,.44-.06,.6-.17,.16-.12,.33-.33,.53-.64l.82,.46c-.13,.22-.26,.4-.4,.56s-.29,.28-.45,.38c-.16,.1-.34,.17-.52,.22s-.39,.07-.61,.07c-.63,0-1.13-.2-1.51-.61-.38-.41-.57-.95-.57-1.62s.18-1.21,.55-1.62c.37-.41,.87-.61,1.48-.61s1.11,.2,1.47,.59c.36,.39,.54,.94,.54,1.63v.23Zm-1-.8c-.14-.52-.46-.78-.98-.78-.12,0-.23,.02-.33,.05-.1,.04-.2,.09-.28,.16-.09,.07-.16,.15-.22,.24-.06,.1-.11,.2-.14,.33h1.96Z"/><path d="M212.04,146.1l-.8,.43c-.13-.26-.28-.39-.47-.39-.09,0-.17,.03-.23,.09-.06,.06-.09,.13-.09,.23,0,.16,.19,.32,.56,.48,.52,.22,.86,.43,1.04,.61,.18,.19,.27,.44,.27,.76,0,.41-.15,.75-.45,1.02-.29,.26-.64,.39-1.06,.39-.71,0-1.21-.34-1.5-1.03l.83-.38c.12,.2,.2,.33,.26,.38,.12,.11,.26,.16,.42,.16,.33,0,.49-.15,.49-.45,0-.17-.13-.33-.38-.49-.1-.05-.2-.1-.29-.14-.1-.05-.2-.09-.3-.14-.28-.14-.48-.28-.6-.42-.15-.18-.22-.4-.22-.68,0-.37,.12-.67,.38-.91,.26-.24,.57-.36,.93-.36,.54,0,.94,.28,1.2,.83Z"/><path d="M215.63,146.1l-.8,.43c-.13-.26-.28-.39-.47-.39-.09,0-.17,.03-.23,.09-.06,.06-.09,.13-.09,.23,0,.16,.19,.32,.56,.48,.52,.22,.86,.43,1.04,.61,.18,.19,.27,.44,.27,.76,0,.41-.15,.75-.45,1.02-.29,.26-.64,.39-1.06,.39-.71,0-1.21-.34-1.5-1.03l.83-.38c.12,.2,.2,.33,.26,.38,.12,.11,.26,.16,.42,.16,.33,0,.49-.15,.49-.45,0-.17-.13-.33-.38-.49-.1-.05-.2-.1-.29-.14-.1-.05-.2-.09-.3-.14-.28-.14-.48-.28-.6-.42-.15-.18-.22-.4-.22-.68,0-.37,.12-.67,.38-.91,.26-.24,.57-.36,.93-.36,.54,0,.94,.28,1.2,.83Z"/><path d="M217.97,146.88v2.71h-1.01v-6.68h1.14c.56,0,.98,.04,1.27,.12,.29,.08,.54,.23,.76,.44,.38,.38,.58,.85,.58,1.42,0,.61-.21,1.1-.61,1.45-.41,.36-.96,.54-1.66,.54h-.47Zm0-.93h.38c.93,0,1.39-.36,1.39-1.07s-.48-1.03-1.43-1.03h-.33v2.1Z"/><path d="M221.57,145.38h.97v.38c.18-.19,.34-.32,.48-.38,.14-.07,.31-.11,.5-.11,.26,0,.53,.08,.81,.25l-.45,.89c-.18-.13-.36-.2-.54-.2-.53,0-.8,.4-.8,1.2v2.19h-.97v-4.21Z"/><path d="M224.6,147.46c0-.61,.22-1.13,.65-1.55,.44-.43,.97-.64,1.59-.64s1.16,.21,1.6,.64c.43,.43,.65,.96,.65,1.58s-.22,1.16-.65,1.59c-.44,.42-.98,.64-1.61,.64s-1.16-.22-1.59-.65c-.43-.43-.64-.96-.64-1.61Zm1,.02c0,.42,.11,.75,.34,1,.23,.25,.54,.37,.91,.37s.68-.12,.91-.37c.23-.25,.34-.57,.34-.98s-.11-.74-.34-.98c-.23-.25-.54-.37-.91-.37s-.67,.12-.9,.37-.35,.57-.35,.96Z"/><path d="M230.47,145.38l1.09,2.37,1.09-2.37h1.09l-2.19,4.5-2.17-4.5h1.09Z"/><path d="M234.26,143.63c0-.17,.06-.32,.19-.44s.27-.19,.45-.19,.33,.06,.45,.19c.12,.12,.19,.27,.19,.45s-.06,.33-.19,.45c-.12,.12-.27,.19-.45,.19s-.33-.06-.45-.19-.19-.28-.19-.45Zm1.12,1.75v4.21h-.97v-4.21h.97Z"/><path d="M239.72,142.28h.98v7.31h-.98v-.44c-.38,.38-.82,.56-1.3,.56-.58,0-1.06-.21-1.44-.63-.38-.43-.57-.97-.57-1.61s.19-1.15,.57-1.58c.38-.42,.85-.64,1.42-.64,.49,0,.93,.2,1.32,.61v-3.58Zm-2.31,5.19c0,.4,.11,.73,.33,.99,.22,.26,.5,.38,.84,.38,.36,0,.65-.12,.87-.37,.22-.26,.33-.58,.33-.98s-.11-.72-.33-.98c-.22-.25-.51-.38-.87-.38-.33,0-.61,.13-.84,.38-.22,.26-.33,.57-.33,.95Z"/><path d="M245.76,147.72h-3.02c.03,.35,.14,.62,.34,.83,.2,.2,.45,.3,.77,.3,.24,0,.44-.06,.6-.17,.16-.12,.33-.33,.53-.64l.82,.46c-.13,.22-.26,.4-.4,.56s-.29,.28-.45,.38c-.16,.1-.34,.17-.52,.22s-.39,.07-.61,.07c-.63,0-1.13-.2-1.51-.61-.38-.41-.57-.95-.57-1.62s.18-1.21,.55-1.62c.37-.41,.87-.61,1.48-.61s1.11,.2,1.47,.59c.36,.39,.54,.94,.54,1.63v.23Zm-1-.8c-.14-.52-.46-.78-.98-.78-.12,0-.23,.02-.33,.05-.1,.04-.2,.09-.28,.16-.09,.07-.16,.15-.22,.24-.06,.1-.11,.2-.14,.33h1.96Z"/><path d="M246.83,145.38h.97v.38c.18-.19,.34-.32,.48-.38,.14-.07,.31-.11,.5-.11,.26,0,.53,.08,.81,.25l-.45,.89c-.18-.13-.36-.2-.54-.2-.53,0-.8,.4-.8,1.2v2.19h-.97v-4.21Z"/><path d="M250.76,148.34l.87,.34-1.23,2.47-.66-.27,1.03-2.54Zm-.24-2.48c0-.16,.06-.3,.18-.42,.12-.12,.26-.18,.42-.18s.31,.06,.42,.18,.18,.26,.18,.42-.06,.31-.18,.43c-.12,.12-.26,.17-.42,.17s-.31-.06-.43-.18c-.12-.12-.17-.26-.17-.43Z"/><path d="M51.48,167.56v3.31h-.98v-3.31h-.35v-.91h.35v-1.63c0-.53,.09-.91,.28-1.12,.25-.31,.62-.46,1.11-.46,.17,0,.39,.05,.65,.15v1l-.1-.05c-.21-.11-.38-.16-.52-.16-.17,0-.29,.06-.35,.19-.06,.12-.09,.36-.09,.7v1.39h1.06v.91h-1.06Z"/><path d="M54.08,166.65v2.42c0,.7,.28,1.05,.83,1.05s.83-.35,.83-1.05v-2.42h.97v2.44c0,.34-.04,.63-.13,.87-.08,.22-.22,.42-.42,.59-.33,.29-.75,.43-1.25,.43s-.92-.14-1.25-.43c-.2-.18-.34-.37-.43-.59-.08-.2-.12-.49-.12-.87v-2.44h.97Z"/><path d="M57.93,166.65h.98v.39c.34-.34,.72-.51,1.15-.51,.49,0,.87,.15,1.15,.46,.24,.26,.35,.69,.35,1.29v2.58h-.98v-2.35c0-.42-.06-.7-.17-.86-.11-.16-.32-.24-.61-.24-.32,0-.55,.11-.69,.32-.13,.21-.2,.58-.2,1.1v2.03h-.98v-4.21Z"/><path d="M66.07,166.83v1.29c-.22-.27-.42-.46-.6-.56-.17-.1-.38-.16-.61-.16-.37,0-.67,.13-.91,.39-.24,.26-.36,.58-.36,.96s.12,.72,.35,.97c.24,.25,.54,.38,.9,.38,.23,0,.44-.05,.62-.15,.17-.1,.38-.29,.61-.57v1.28c-.4,.21-.79,.31-1.19,.31-.65,0-1.2-.21-1.64-.63-.44-.42-.66-.95-.66-1.58s.22-1.16,.67-1.59c.44-.43,.99-.65,1.64-.65,.42,0,.81,.1,1.18,.3Z"/><path d="M68.02,167.56v3.31h-.97v-3.31h-.42v-.91h.42v-1.54h.97v1.54h.76v.91h-.76Z"/><path d="M69.29,164.89c0-.17,.06-.32,.19-.44s.27-.19,.45-.19,.33,.06,.45,.19c.12,.12,.19,.27,.19,.45s-.06,.33-.19,.45c-.12,.12-.27,.19-.45,.19s-.33-.06-.45-.19-.19-.28-.19-.45Zm1.12,1.75v4.21h-.97v-4.21h.97Z"/><path d="M71.45,168.72c0-.61,.22-1.13,.65-1.55,.44-.43,.97-.64,1.59-.64s1.16,.21,1.6,.64c.43,.43,.65,.96,.65,1.58s-.22,1.16-.65,1.59c-.44,.42-.98,.64-1.61,.64s-1.16-.22-1.59-.65c-.43-.43-.64-.96-.64-1.61Zm1,.02c0,.42,.11,.75,.34,1,.23,.25,.54,.37,.91,.37s.69-.12,.91-.37c.23-.25,.34-.57,.34-.98s-.11-.74-.34-.98c-.23-.25-.54-.37-.91-.37s-.67,.12-.9,.37c-.23,.25-.35,.57-.35,.96Z"/><path d="M76.97,166.65h.98v.39c.34-.34,.72-.51,1.15-.51,.49,0,.87,.15,1.15,.46,.24,.26,.35,.69,.35,1.29v2.58h-.98v-2.35c0-.42-.06-.7-.17-.86-.11-.16-.32-.24-.61-.24-.32,0-.55,.11-.69,.32-.13,.21-.2,.58-.2,1.1v2.03h-.98v-4.21Z"/><path d="M84.42,164.89c0-.17,.06-.32,.19-.44s.27-.19,.45-.19,.33,.06,.45,.19c.12,.12,.19,.27,.19,.45s-.06,.33-.19,.45c-.12,.12-.27,.19-.45,.19s-.33-.06-.45-.19-.19-.28-.19-.45Zm1.12,1.75v4.21h-.97v-4.21h.97Z"/><path d="M86.77,166.65h.98v.39c.34-.34,.72-.51,1.15-.51,.49,0,.87,.15,1.15,.46,.24,.26,.35,.69,.35,1.29v2.58h-.98v-2.35c0-.42-.06-.7-.17-.86-.11-.16-.32-.24-.61-.24-.32,0-.55,.11-.69,.32-.13,.21-.2,.58-.2,1.1v2.03h-.98v-4.21Z"/><path d="M91.49,164.89c0-.17,.06-.32,.19-.44s.27-.19,.45-.19,.33,.06,.45,.19c.12,.12,.19,.27,.19,.45s-.06,.33-.19,.45c-.12,.12-.27,.19-.45,.19s-.33-.06-.45-.19-.19-.28-.19-.45Zm1.12,1.75v4.21h-.97v-4.21h.97Z"/><path d="M94.84,167.56v3.31h-.97v-3.31h-.42v-.91h.42v-1.54h.97v1.54h.76v.91h-.76Z"/><path d="M96.11,164.89c0-.17,.06-.32,.19-.44s.27-.19,.45-.19,.33,.06,.45,.19c.12,.12,.19,.27,.19,.45s-.06,.33-.19,.45c-.12,.12-.27,.19-.45,.19s-.33-.06-.45-.19-.19-.28-.19-.45Zm1.12,1.75v4.21h-.97v-4.21h.97Z"/><path d="M101.58,166.65h.98v4.21h-.98v-.44c-.4,.38-.83,.56-1.29,.56-.58,0-1.06-.21-1.44-.63-.38-.43-.57-.97-.57-1.61s.19-1.16,.57-1.58c.38-.42,.85-.63,1.42-.63,.49,0,.93,.2,1.32,.61v-.49Zm-2.31,2.09c0,.4,.11,.73,.32,.99,.22,.26,.5,.38,.84,.38,.36,0,.65-.12,.87-.37,.22-.26,.33-.58,.33-.98s-.11-.72-.33-.98c-.22-.25-.51-.38-.87-.38-.33,0-.61,.13-.84,.38-.22,.26-.33,.57-.33,.95Z"/><path d="M104.76,163.55v7.31h-.97v-7.31h.97Z"/><path d="M105.84,164.89c0-.17,.06-.32,.19-.44s.27-.19,.45-.19,.33,.06,.45,.19c.12,.12,.19,.27,.19,.45s-.06,.33-.19,.45c-.12,.12-.27,.19-.45,.19s-.33-.06-.45-.19-.19-.28-.19-.45Zm1.12,1.75v4.21h-.97v-4.21h.97Z"/><path d="M109.59,169.94h2.51v.92h-4.44l2.73-3.31h-2.15v-.91h4.08l-2.73,3.3Z"/><path d="M116.85,168.98h-3.02c.03,.35,.14,.62,.34,.83,.2,.2,.45,.3,.77,.3,.24,0,.44-.06,.6-.17,.16-.12,.33-.33,.53-.64l.82,.46c-.13,.22-.26,.4-.4,.56-.14,.15-.29,.28-.45,.38-.16,.1-.34,.17-.52,.22-.19,.05-.39,.07-.61,.07-.63,0-1.13-.2-1.51-.61-.38-.41-.57-.95-.57-1.62s.18-1.21,.55-1.62c.37-.41,.87-.61,1.48-.61s1.11,.2,1.47,.59c.36,.39,.54,.94,.54,1.63v.23Zm-1-.8c-.14-.52-.46-.78-.98-.78-.12,0-.23,.02-.33,.05-.1,.04-.2,.09-.28,.16-.08,.07-.16,.15-.22,.24-.06,.1-.11,.2-.14,.33h1.96Z"/><path d="M119.04,163.48l.9,.35c-.31,.75-.53,1.45-.66,2.09-.06,.32-.11,.66-.14,1.02-.03,.36-.05,.74-.05,1.17s.02,.81,.05,1.17,.08,.7,.14,1.02c.12,.63,.34,1.33,.66,2.08l-.9,.35c-.63-1.32-.94-2.86-.94-4.62s.31-3.3,.94-4.62Z"/><path d="M124.27,166.65h.98v4.21h-.98v-.44c-.4,.38-.83,.56-1.29,.56-.58,0-1.06-.21-1.44-.63-.38-.43-.57-.97-.57-1.61s.19-1.16,.57-1.58c.38-.42,.85-.63,1.42-.63,.49,0,.93,.2,1.32,.61v-.49Zm-2.31,2.09c0,.4,.11,.73,.32,.99,.22,.26,.5,.38,.84,.38,.36,0,.65-.12,.87-.37,.22-.26,.33-.58,.33-.98s-.11-.72-.33-.98c-.22-.25-.51-.38-.87-.38-.33,0-.61,.13-.84,.38-.22,.26-.33,.57-.33,.95Z"/><path d="M129.58,163.55h.98v7.31h-.98v-.44c-.38,.38-.82,.56-1.3,.56-.58,0-1.06-.21-1.44-.63-.38-.43-.57-.97-.57-1.61s.19-1.15,.57-1.58c.38-.42,.85-.64,1.41-.64,.49,0,.94,.2,1.32,.61v-3.58Zm-2.31,5.19c0,.4,.11,.73,.32,.99,.22,.26,.5,.38,.84,.38,.36,0,.65-.12,.87-.37,.22-.26,.33-.58,.33-.98s-.11-.72-.33-.98c-.22-.25-.51-.38-.87-.38-.33,0-.61,.13-.84,.38-.22,.26-.33,.57-.33,.95Z"/><path d="M134.89,163.55h.98v7.31h-.98v-.44c-.38,.38-.82,.56-1.3,.56-.58,0-1.06-.21-1.44-.63-.38-.43-.57-.97-.57-1.61s.19-1.15,.57-1.58c.38-.42,.85-.64,1.42-.64,.49,0,.93,.2,1.32,.61v-3.58Zm-2.31,5.19c0,.4,.11,.73,.33,.99,.22,.26,.5,.38,.84,.38,.36,0,.65-.12,.87-.37,.22-.26,.33-.58,.33-.98s-.11-.72-.33-.98c-.22-.25-.51-.38-.87-.38-.33,0-.61,.13-.84,.38-.22,.26-.33,.57-.33,.95Z"/><path d="M137.1,166.65h.97v.38c.18-.19,.34-.32,.48-.38,.14-.07,.31-.11,.5-.11,.26,0,.53,.08,.81,.25l-.45,.89c-.18-.13-.36-.2-.54-.2-.53,0-.8,.4-.8,1.2v2.19h-.97v-4.21Z"/><path d="M144.19,168.98h-3.02c.03,.35,.14,.62,.34,.83,.2,.2,.45,.3,.77,.3,.24,0,.44-.06,.6-.17,.16-.12,.33-.33,.53-.64l.82,.46c-.13,.22-.26,.4-.4,.56s-.29,.28-.45,.38c-.16,.1-.34,.17-.52,.22s-.39,.07-.61,.07c-.63,0-1.13-.2-1.51-.61-.38-.41-.57-.95-.57-1.62s.18-1.21,.55-1.62c.37-.41,.87-.61,1.48-.61s1.11,.2,1.47,.59c.36,.39,.54,.94,.54,1.63v.23Zm-1-.8c-.14-.52-.46-.78-.98-.78-.12,0-.23,.02-.33,.05-.1,.04-.2,.09-.28,.16-.09,.07-.16,.15-.22,.24-.06,.1-.11,.2-.14,.33h1.96Z"/><path d="M147.7,167.37l-.8,.43c-.13-.26-.28-.39-.47-.39-.09,0-.17,.03-.23,.09-.06,.06-.09,.13-.09,.23,0,.16,.19,.32,.56,.48,.52,.22,.86,.43,1.04,.61,.18,.19,.27,.44,.27,.76,0,.41-.15,.75-.45,1.02-.29,.26-.64,.39-1.06,.39-.71,0-1.21-.34-1.5-1.03l.83-.38c.12,.2,.2,.33,.26,.38,.12,.11,.26,.16,.42,.16,.33,0,.49-.15,.49-.45,0-.17-.13-.33-.38-.49-.1-.05-.2-.1-.29-.14-.1-.05-.2-.09-.3-.14-.28-.14-.48-.28-.6-.42-.15-.18-.22-.4-.22-.68,0-.37,.12-.67,.38-.91,.26-.24,.57-.36,.93-.36,.54,0,.94,.28,1.2,.83Z"/><path d="M151.3,167.37l-.8,.43c-.13-.26-.28-.39-.47-.39-.09,0-.17,.03-.23,.09-.06,.06-.09,.13-.09,.23,0,.16,.19,.32,.56,.48,.52,.22,.86,.43,1.04,.61,.18,.19,.27,.44,.27,.76,0,.41-.15,.75-.45,1.02-.29,.26-.64,.39-1.06,.39-.71,0-1.21-.34-1.5-1.03l.83-.38c.12,.2,.2,.33,.26,.38,.12,.11,.26,.16,.42,.16,.33,0,.49-.15,.49-.45,0-.17-.13-.33-.38-.49-.1-.05-.2-.1-.29-.14-.1-.05-.2-.09-.3-.14-.28-.14-.48-.28-.6-.42-.15-.18-.22-.4-.22-.68,0-.37,.12-.67,.38-.91,.26-.24,.57-.36,.93-.36,.54,0,.94,.28,1.2,.83Z"/><path d="M154.98,168.72c0-.61,.22-1.13,.65-1.55,.44-.43,.97-.64,1.59-.64s1.16,.21,1.6,.64c.43,.43,.65,.96,.65,1.58s-.22,1.16-.65,1.59c-.44,.42-.98,.64-1.61,.64s-1.16-.22-1.59-.65c-.43-.43-.64-.96-.64-1.61Zm1,.02c0,.42,.11,.75,.34,1,.23,.25,.54,.37,.91,.37s.68-.12,.91-.37c.23-.25,.34-.57,.34-.98s-.11-.74-.34-.98c-.23-.25-.54-.37-.91-.37s-.67,.12-.9,.37-.35,.57-.35,.96Z"/><path d="M160.87,166.65l1.1,2.41,1.19-2.79,1.2,2.79,1.09-2.41h1.09l-2.21,4.53-1.17-2.71-1.19,2.71-2.2-4.53h1.09Z"/><path d="M167.2,166.65h.98v.39c.34-.34,.72-.51,1.15-.51,.49,0,.87,.15,1.15,.46,.24,.26,.36,.69,.36,1.29v2.58h-.98v-2.35c0-.42-.06-.7-.17-.86-.11-.16-.32-.24-.61-.24-.32,0-.55,.11-.69,.32-.13,.21-.2,.58-.2,1.1v2.03h-.98v-4.21Z"/><path d="M175.89,168.98h-3.02c.03,.35,.14,.62,.34,.83,.2,.2,.45,.3,.77,.3,.24,0,.44-.06,.6-.17,.16-.12,.33-.33,.53-.64l.82,.46c-.13,.22-.26,.4-.4,.56s-.29,.28-.45,.38c-.16,.1-.34,.17-.52,.22s-.39,.07-.61,.07c-.63,0-1.13-.2-1.51-.61-.38-.41-.57-.95-.57-1.62s.18-1.21,.55-1.62c.37-.41,.87-.61,1.48-.61s1.11,.2,1.47,.59c.36,.39,.54,.94,.54,1.63v.23Zm-1-.8c-.14-.52-.46-.78-.98-.78-.12,0-.23,.02-.33,.05-.1,.04-.2,.09-.28,.16-.09,.07-.16,.15-.22,.24-.06,.1-.11,.2-.14,.33h1.96Z"/><path d="M176.96,166.65h.97v.38c.18-.19,.34-.32,.48-.38,.14-.07,.31-.11,.5-.11,.26,0,.53,.08,.81,.25l-.45,.89c-.18-.13-.36-.2-.54-.2-.53,0-.8,.4-.8,1.2v2.19h-.97v-4.21Z"/><path d="M180.52,169.61l.87,.34-1.23,2.47-.66-.27,1.03-2.54Z"/><path d="M188.49,166.65h.98v4.21h-.98v-.44c-.4,.38-.83,.56-1.29,.56-.58,0-1.06-.21-1.45-.63-.38-.43-.57-.97-.57-1.61s.19-1.16,.57-1.58c.38-.42,.85-.63,1.42-.63,.49,0,.93,.2,1.32,.61v-.49Zm-2.31,2.09c0,.4,.11,.73,.33,.99,.22,.26,.5,.38,.84,.38,.36,0,.65-.12,.87-.37,.22-.26,.33-.58,.33-.98s-.11-.72-.33-.98c-.22-.25-.51-.38-.87-.38-.33,0-.61,.13-.84,.38-.22,.26-.33,.57-.33,.95Z"/><path d="M193.81,163.55h.98v7.31h-.98v-.44c-.38,.38-.82,.56-1.3,.56-.58,0-1.06-.21-1.44-.63-.38-.43-.57-.97-.57-1.61s.19-1.15,.57-1.58c.38-.42,.85-.64,1.42-.64,.49,0,.93,.2,1.32,.61v-3.58Zm-2.31,5.19c0,.4,.11,.73,.33,.99,.22,.26,.5,.38,.84,.38,.36,0,.65-.12,.87-.37,.22-.26,.33-.58,.33-.98s-.11-.72-.33-.98c-.22-.25-.51-.38-.87-.38-.33,0-.61,.13-.84,.38-.22,.26-.33,.57-.33,.95Z"/><path d="M199.12,163.55h.98v7.31h-.98v-.44c-.38,.38-.82,.56-1.3,.56-.58,0-1.06-.21-1.44-.63-.38-.43-.57-.97-.57-1.61s.19-1.15,.57-1.58c.38-.42,.85-.64,1.42-.64,.49,0,.93,.2,1.32,.61v-3.58Zm-2.31,5.19c0,.4,.11,.73,.33,.99,.22,.26,.5,.38,.84,.38,.36,0,.65-.12,.87-.37,.22-.26,.33-.58,.33-.98s-.11-.72-.33-.98c-.22-.25-.51-.38-.87-.38-.33,0-.61,.13-.84,.38-.22,.26-.33,.57-.33,.95Z"/><path d="M201.33,166.65h.97v.38c.18-.19,.34-.32,.48-.38,.14-.07,.31-.11,.5-.11,.26,0,.53,.08,.81,.25l-.45,.89c-.18-.13-.36-.2-.54-.2-.53,0-.8,.4-.8,1.2v2.19h-.97v-4.21Z"/><path d="M208.42,168.98h-3.02c.03,.35,.14,.62,.34,.83,.2,.2,.45,.3,.77,.3,.24,0,.44-.06,.6-.17,.16-.12,.33-.33,.53-.64l.82,.46c-.13,.22-.26,.4-.4,.56s-.29,.28-.45,.38c-.16,.1-.34,.17-.52,.22s-.39,.07-.61,.07c-.63,0-1.13-.2-1.51-.61-.38-.41-.57-.95-.57-1.62s.18-1.21,.55-1.62c.37-.41,.87-.61,1.48-.61s1.11,.2,1.47,.59c.36,.39,.54,.94,.54,1.63v.23Zm-1-.8c-.14-.52-.46-.78-.98-.78-.12,0-.23,.02-.33,.05-.1,.04-.2,.09-.28,.16-.09,.07-.16,.15-.22,.24-.06,.1-.11,.2-.14,.33h1.96Z"/><path d="M211.93,167.37l-.8,.43c-.13-.26-.28-.39-.47-.39-.09,0-.17,.03-.23,.09-.06,.06-.09,.13-.09,.23,0,.16,.19,.32,.56,.48,.52,.22,.86,.43,1.04,.61,.18,.19,.27,.44,.27,.76,0,.41-.15,.75-.45,1.02-.29,.26-.64,.39-1.06,.39-.71,0-1.21-.34-1.5-1.03l.83-.38c.12,.2,.2,.33,.26,.38,.12,.11,.26,.16,.42,.16,.33,0,.49-.15,.49-.45,0-.17-.13-.33-.38-.49-.1-.05-.2-.1-.29-.14-.1-.05-.2-.09-.3-.14-.28-.14-.48-.28-.6-.42-.15-.18-.22-.4-.22-.68,0-.37,.12-.67,.38-.91,.26-.24,.57-.36,.93-.36,.54,0,.94,.28,1.2,.83Z"/><path d="M215.53,167.37l-.8,.43c-.13-.26-.28-.39-.47-.39-.09,0-.17,.03-.23,.09-.06,.06-.09,.13-.09,.23,0,.16,.19,.32,.56,.48,.52,.22,.86,.43,1.04,.61,.18,.19,.27,.44,.27,.76,0,.41-.15,.75-.45,1.02-.29,.26-.64,.39-1.06,.39-.71,0-1.21-.34-1.5-1.03l.83-.38c.12,.2,.2,.33,.26,.38,.12,.11,.26,.16,.42,.16,.33,0,.49-.15,.49-.45,0-.17-.13-.33-.38-.49-.1-.05-.2-.1-.29-.14-.1-.05-.2-.09-.3-.14-.28-.14-.48-.28-.6-.42-.15-.18-.22-.4-.22-.68,0-.37,.12-.67,.38-.91,.26-.24,.57-.36,.93-.36,.54,0,.94,.28,1.2,.83Z"/><path d="M49.86,182.05h5.01v.91h-5.01v-.91Z"/><path d="M58.59,177.28h.98v4.21h-.98v-.44c-.4,.38-.83,.56-1.29,.56-.58,0-1.06-.21-1.44-.63-.38-.43-.57-.97-.57-1.61s.19-1.16,.57-1.58c.38-.42,.85-.63,1.42-.63,.49,0,.93,.2,1.32,.61v-.49Zm-2.31,2.09c0,.4,.11,.73,.32,.99,.22,.26,.5,.38,.84,.38,.36,0,.65-.12,.87-.37,.22-.26,.33-.58,.33-.98s-.11-.72-.33-.98c-.22-.25-.51-.38-.87-.38-.33,0-.61,.13-.84,.38-.22,.26-.33,.57-.33,.95Z"/><path d="M63.9,174.19h.98v7.31h-.98v-.44c-.38,.38-.82,.56-1.3,.56-.58,0-1.06-.21-1.44-.63-.38-.43-.57-.97-.57-1.61s.19-1.15,.57-1.58c.38-.42,.85-.64,1.41-.64,.49,0,.93,.2,1.32,.61v-3.58Zm-2.31,5.19c0,.4,.11,.73,.32,.99,.22,.26,.5,.38,.84,.38,.36,0,.65-.12,.87-.37,.22-.26,.33-.58,.33-.98s-.11-.72-.33-.98c-.22-.25-.51-.38-.87-.38-.33,0-.61,.13-.84,.38-.22,.26-.33,.57-.33,.95Z"/><path d="M69.22,174.19h.98v7.31h-.98v-.44c-.38,.38-.82,.56-1.3,.56-.58,0-1.06-.21-1.44-.63-.38-.43-.57-.97-.57-1.61s.19-1.15,.57-1.58c.38-.42,.85-.64,1.41-.64,.49,0,.93,.2,1.32,.61v-3.58Zm-2.31,5.19c0,.4,.11,.73,.32,.99,.22,.26,.5,.38,.84,.38,.36,0,.65-.12,.87-.37,.22-.26,.33-.58,.33-.98s-.11-.72-.33-.98c-.22-.25-.51-.38-.87-.38-.33,0-.61,.13-.84,.38-.22,.26-.33,.57-.33,.95Z"/><path d="M71.42,177.28h.97v.38c.18-.19,.34-.32,.48-.38,.14-.07,.31-.11,.5-.11,.26,0,.52,.08,.8,.25l-.45,.89c-.18-.13-.36-.2-.54-.2-.53,0-.8,.4-.8,1.2v2.19h-.97v-4.21Z"/><path d="M78.52,179.62h-3.02c.03,.35,.14,.62,.34,.83,.2,.2,.45,.3,.77,.3,.24,0,.44-.06,.6-.17,.16-.12,.33-.33,.53-.64l.82,.46c-.13,.22-.26,.4-.4,.56-.14,.15-.29,.28-.45,.38-.16,.1-.34,.17-.52,.22-.19,.05-.39,.07-.61,.07-.63,0-1.13-.2-1.51-.61-.38-.41-.57-.95-.57-1.62s.18-1.21,.55-1.62c.37-.41,.87-.61,1.48-.61s1.11,.2,1.47,.59c.36,.39,.54,.94,.54,1.63v.23Zm-1-.8c-.14-.52-.46-.78-.98-.78-.12,0-.23,.02-.33,.05-.1,.04-.2,.09-.28,.16-.08,.07-.16,.15-.22,.24-.06,.1-.11,.2-.14,.33h1.96Z"/><path d="M82.03,178l-.8,.43c-.13-.26-.28-.39-.47-.39-.09,0-.17,.03-.23,.09-.06,.06-.1,.13-.1,.23,0,.16,.19,.32,.56,.48,.52,.22,.86,.43,1.04,.61s.27,.44,.27,.76c0,.41-.15,.75-.45,1.02-.29,.26-.64,.39-1.06,.39-.71,0-1.21-.34-1.5-1.03l.83-.38c.12,.2,.2,.33,.26,.38,.12,.11,.26,.16,.42,.16,.33,0,.49-.15,.49-.45,0-.17-.13-.33-.38-.49-.1-.05-.2-.1-.29-.14-.1-.05-.2-.09-.3-.14-.28-.14-.48-.28-.6-.42-.15-.18-.22-.4-.22-.68,0-.37,.13-.67,.38-.91,.26-.24,.57-.36,.94-.36,.54,0,.94,.28,1.2,.83Z"/><path d="M85.63,178l-.8,.43c-.13-.26-.28-.39-.47-.39-.09,0-.17,.03-.23,.09-.06,.06-.1,.13-.1,.23,0,.16,.19,.32,.56,.48,.52,.22,.86,.43,1.04,.61s.27,.44,.27,.76c0,.41-.15,.75-.45,1.02-.29,.26-.64,.39-1.06,.39-.71,0-1.21-.34-1.5-1.03l.83-.38c.12,.2,.2,.33,.26,.38,.12,.11,.26,.16,.42,.16,.33,0,.49-.15,.49-.45,0-.17-.13-.33-.38-.49-.1-.05-.2-.1-.29-.14-.1-.05-.2-.09-.3-.14-.28-.14-.48-.28-.6-.42-.15-.18-.22-.4-.22-.68,0-.37,.13-.67,.38-.91,.26-.24,.57-.36,.94-.36,.54,0,.94,.28,1.2,.83Z"/><path d="M87.97,178.78v2.71h-1.01v-6.68h1.14c.56,0,.98,.04,1.27,.12,.29,.08,.54,.23,.76,.44,.38,.38,.58,.85,.58,1.42,0,.61-.21,1.1-.61,1.45-.41,.36-.96,.54-1.66,.54h-.47Zm0-.93h.38c.93,0,1.39-.36,1.39-1.07s-.48-1.03-1.43-1.03h-.33v2.1Z"/><path d="M91.56,177.28h.97v.38c.18-.19,.34-.32,.48-.38,.14-.07,.31-.11,.5-.11,.26,0,.52,.08,.8,.25l-.45,.89c-.18-.13-.36-.2-.54-.2-.53,0-.8,.4-.8,1.2v2.19h-.97v-4.21Z"/><path d="M94.6,179.36c0-.61,.22-1.13,.65-1.55,.44-.43,.97-.64,1.59-.64s1.16,.21,1.6,.64c.43,.43,.65,.96,.65,1.58s-.22,1.16-.65,1.59c-.44,.42-.98,.64-1.61,.64s-1.16-.22-1.59-.65c-.43-.43-.64-.96-.64-1.61Zm1,.02c0,.42,.11,.75,.34,1,.23,.25,.54,.37,.91,.37s.69-.12,.91-.37c.23-.25,.34-.57,.34-.98s-.11-.74-.34-.98c-.23-.25-.54-.37-.91-.37s-.67,.12-.9,.37c-.23,.25-.35,.57-.35,.96Z"/><path d="M100.47,177.28l1.09,2.37,1.09-2.37h1.09l-2.19,4.5-2.17-4.5h1.09Z"/><path d="M104.25,175.53c0-.17,.06-.32,.19-.44s.27-.19,.45-.19,.33,.06,.45,.19c.12,.12,.19,.27,.19,.45s-.06,.33-.19,.45c-.12,.12-.27,.19-.45,.19s-.33-.06-.45-.19-.19-.28-.19-.45Zm1.12,1.75v4.21h-.97v-4.21h.97Z"/><path d="M109.71,174.19h.98v7.31h-.98v-.44c-.38,.38-.82,.56-1.3,.56-.58,0-1.06-.21-1.44-.63-.38-.43-.57-.97-.57-1.61s.19-1.15,.57-1.58c.38-.42,.85-.64,1.41-.64,.49,0,.93,.2,1.32,.61v-3.58Zm-2.31,5.19c0,.4,.11,.73,.32,.99,.22,.26,.5,.38,.84,.38,.36,0,.65-.12,.87-.37,.22-.26,.33-.58,.33-.98s-.11-.72-.33-.98c-.22-.25-.51-.38-.87-.38-.33,0-.61,.13-.84,.38-.22,.26-.33,.57-.33,.95Z"/><path d="M115.75,179.62h-3.02c.03,.35,.14,.62,.34,.83,.2,.2,.45,.3,.77,.3,.24,0,.44-.06,.6-.17,.16-.12,.33-.33,.53-.64l.82,.46c-.13,.22-.26,.4-.4,.56-.14,.15-.29,.28-.45,.38-.16,.1-.34,.17-.52,.22-.19,.05-.39,.07-.61,.07-.63,0-1.13-.2-1.51-.61-.38-.41-.57-.95-.57-1.62s.18-1.21,.55-1.62c.37-.41,.87-.61,1.48-.61s1.11,.2,1.47,.59c.36,.39,.54,.94,.54,1.63v.23Zm-1-.8c-.14-.52-.46-.78-.98-.78-.12,0-.23,.02-.33,.05-.1,.04-.2,.09-.28,.16-.08,.07-.16,.15-.22,.24-.06,.1-.11,.2-.14,.33h1.96Z"/><path d="M116.82,177.28h.97v.38c.18-.19,.34-.32,.48-.38,.14-.07,.31-.11,.5-.11,.26,0,.52,.08,.8,.25l-.45,.89c-.18-.13-.36-.2-.54-.2-.53,0-.8,.4-.8,1.2v2.19h-.97v-4.21Z"/><path d="M121.02,183.35l-.9-.35c.32-.75,.54-1.45,.66-2.08,.13-.63,.19-1.36,.19-2.19s-.06-1.55-.19-2.19c-.13-.64-.35-1.33-.66-2.09l.9-.35c.63,1.32,.94,2.86,.94,4.62s-.31,3.3-.94,4.62Z"/><path d="M127.09,183.79h-.97v-6.51h.97v.46c.38-.38,.82-.58,1.31-.58,.58,0,1.06,.21,1.43,.64,.38,.42,.57,.96,.57,1.6s-.19,1.16-.57,1.58c-.38,.42-.85,.63-1.42,.63-.49,0-.93-.2-1.32-.59v2.76Zm2.32-4.37c0-.4-.11-.73-.33-.99-.22-.26-.5-.39-.84-.39-.36,0-.65,.12-.87,.37s-.33,.57-.33,.98,.11,.72,.33,.98c.22,.25,.51,.38,.87,.38,.34,0,.62-.13,.83-.38,.22-.25,.34-.57,.34-.95Z"/><path d="M132.4,177.28v2.42c0,.7,.28,1.05,.83,1.05s.83-.35,.83-1.05v-2.42h.97v2.44c0,.34-.04,.63-.13,.87-.08,.22-.22,.42-.42,.59-.33,.29-.75,.43-1.25,.43s-.92-.14-1.25-.43c-.2-.18-.34-.37-.43-.59-.08-.2-.12-.49-.12-.87v-2.44h.97Z"/><path d="M137.23,174.19v3.58c.39-.4,.83-.61,1.32-.61,.57,0,1.04,.21,1.42,.64,.38,.42,.57,.95,.57,1.58s-.19,1.19-.57,1.61c-.38,.42-.86,.63-1.43,.63-.49,0-.92-.19-1.31-.56v.44h-.97v-7.31h.97Zm2.32,5.23c0-.4-.11-.73-.33-.99-.22-.26-.5-.39-.83-.39-.36,0-.65,.13-.87,.38-.22,.25-.33,.57-.33,.97s.11,.74,.33,.98c.22,.25,.51,.38,.87,.38,.34,0,.62-.12,.84-.38,.22-.25,.34-.57,.34-.95Z"/><path d="M142.54,174.19v7.31h-.97v-7.31h.97Z"/><path d="M143.63,175.53c0-.17,.06-.32,.19-.44s.27-.19,.45-.19,.33,.06,.45,.19c.12,.12,.19,.27,.19,.45s-.06,.33-.19,.45c-.12,.12-.27,.19-.45,.19s-.33-.06-.45-.19-.19-.28-.19-.45Zm1.12,1.75v4.21h-.97v-4.21h.97Z"/><path d="M149.26,177.46v1.29c-.22-.27-.42-.46-.6-.56-.17-.1-.38-.16-.61-.16-.37,0-.67,.13-.91,.39-.24,.26-.36,.58-.36,.96s.12,.72,.35,.97c.24,.25,.54,.38,.9,.38,.23,0,.44-.05,.62-.15,.17-.1,.38-.29,.61-.57v1.28c-.4,.21-.79,.31-1.19,.31-.65,0-1.2-.21-1.64-.63-.44-.42-.66-.95-.66-1.58s.22-1.16,.67-1.59,.99-.65,1.64-.65c.42,0,.81,.1,1.18,.3Z"/><path d="M152.79,175.53c0-.17,.06-.32,.19-.44s.27-.19,.45-.19,.33,.06,.45,.19c.12,.12,.19,.27,.19,.45s-.06,.33-.19,.45c-.12,.12-.27,.19-.45,.19s-.33-.06-.45-.19-.19-.28-.19-.45Zm1.12,1.75v4.21h-.97v-4.21h.97Z"/><path d="M155.15,177.28h.98v.39c.34-.34,.72-.51,1.15-.51,.49,0,.87,.15,1.15,.46,.24,.26,.36,.69,.36,1.29v2.58h-.98v-2.35c0-.42-.06-.7-.17-.86-.11-.16-.32-.24-.61-.24-.32,0-.55,.11-.69,.32-.13,.21-.2,.58-.2,1.1v2.03h-.98v-4.21Z"/><path d="M159.86,175.53c0-.17,.06-.32,.19-.44s.27-.19,.45-.19,.33,.06,.45,.19c.12,.12,.19,.27,.19,.45s-.06,.33-.19,.45c-.12,.12-.27,.19-.45,.19s-.33-.06-.45-.19-.19-.28-.19-.45Zm1.12,1.75v4.21h-.97v-4.21h.97Z"/><path d="M163.22,178.19v3.31h-.97v-3.31h-.42v-.91h.42v-1.54h.97v1.54h.76v.91h-.76Z"/><path d="M164.49,175.53c0-.17,.06-.32,.19-.44s.27-.19,.45-.19,.33,.06,.45,.19c.12,.12,.19,.27,.19,.45s-.06,.33-.19,.45c-.12,.12-.27,.19-.45,.19s-.33-.06-.45-.19-.19-.28-.19-.45Zm1.12,1.75v4.21h-.97v-4.21h.97Z"/><path d="M169.95,177.28h.98v4.21h-.98v-.44c-.4,.38-.83,.56-1.29,.56-.58,0-1.06-.21-1.45-.63-.38-.43-.57-.97-.57-1.61s.19-1.16,.57-1.58c.38-.42,.85-.63,1.42-.63,.49,0,.93,.2,1.32,.61v-.49Zm-2.31,2.09c0,.4,.11,.73,.33,.99,.22,.26,.5,.38,.84,.38,.36,0,.65-.12,.87-.37,.22-.26,.33-.58,.33-.98s-.11-.72-.33-.98c-.22-.25-.51-.38-.87-.38-.33,0-.61,.13-.84,.38-.22,.26-.33,.57-.33,.95Z"/><path d="M173.13,174.19v7.31h-.97v-7.31h.97Z"/><path d="M174.22,175.53c0-.17,.06-.32,.19-.44s.27-.19,.45-.19,.33,.06,.45,.19c.12,.12,.19,.27,.19,.45s-.06,.33-.19,.45c-.12,.12-.27,.19-.45,.19s-.33-.06-.45-.19-.19-.28-.19-.45Zm1.12,1.75v4.21h-.97v-4.21h.97Z"/><path d="M177.97,180.58h2.51v.92h-4.44l2.73-3.31h-2.15v-.91h4.08l-2.73,3.3Z"/><path d="M185.22,179.62h-3.02c.03,.35,.14,.62,.34,.83,.2,.2,.45,.3,.77,.3,.24,0,.44-.06,.6-.17,.16-.12,.33-.33,.53-.64l.82,.46c-.13,.22-.26,.4-.4,.56s-.29,.28-.45,.38c-.16,.1-.34,.17-.52,.22s-.39,.07-.61,.07c-.63,0-1.13-.2-1.51-.61-.38-.41-.57-.95-.57-1.62s.18-1.21,.55-1.62c.37-.41,.87-.61,1.48-.61s1.11,.2,1.47,.59c.36,.39,.54,.94,.54,1.63v.23Zm-1-.8c-.14-.52-.46-.78-.98-.78-.12,0-.23,.02-.33,.05-.1,.04-.2,.09-.28,.16-.09,.07-.16,.15-.22,.24-.06,.1-.11,.2-.14,.33h1.96Z"/><path d="M186.29,177.28h.97v.38c.18-.19,.34-.32,.48-.38,.14-.07,.31-.11,.5-.11,.26,0,.53,.08,.81,.25l-.45,.89c-.18-.13-.36-.2-.54-.2-.53,0-.8,.4-.8,1.2v2.19h-.97v-4.21Z"/><path d="M194.44,175h-.12c-.26,0-.43,.05-.51,.15-.08,.1-.12,.31-.12,.63v1.74c0,.31-.04,.55-.12,.75-.08,.17-.24,.32-.48,.46,.4,.24,.61,.56,.61,.96v1.96c0,.33,.04,.54,.12,.65,.08,.1,.25,.16,.51,.16h.12v.87h-.25l-.31,.02c-.42,0-.73-.11-.91-.34-.19-.23-.28-.6-.28-1.12v-2.13c0-.15-.05-.28-.15-.4-.1-.12-.24-.2-.41-.24v-.83c.2-.05,.35-.13,.43-.26s.13-.32,.13-.57v-1.93c0-.49,.09-.85,.27-1.08,.18-.22,.48-.33,.88-.33h.33l.25,.02v.87Z"/><path d="M53.58,198.55h.98v4.21h-.98v-.44c-.4,.38-.83,.56-1.29,.56-.58,0-1.06-.21-1.44-.63-.38-.43-.57-.97-.57-1.61s.19-1.16,.57-1.58c.38-.42,.85-.63,1.42-.63,.49,0,.93,.2,1.32,.61v-.49Zm-2.31,2.09c0,.4,.11,.73,.32,.99,.22,.26,.5,.38,.84,.38,.36,0,.65-.12,.87-.37,.22-.26,.33-.58,.33-.98s-.11-.72-.33-.98c-.22-.25-.51-.38-.87-.38-.33,0-.61,.13-.84,.38-.22,.26-.33,.57-.33,.95Z"/><path d="M58.89,195.45h.98v7.31h-.98v-.44c-.38,.38-.82,.56-1.3,.56-.58,0-1.06-.21-1.44-.63-.38-.43-.57-.97-.57-1.61s.19-1.15,.57-1.58c.38-.42,.85-.64,1.41-.64,.49,0,.93,.2,1.32,.61v-3.58Zm-2.31,5.19c0,.4,.11,.73,.32,.99,.22,.26,.5,.38,.84,.38,.36,0,.65-.12,.87-.37,.22-.26,.33-.58,.33-.98s-.11-.72-.33-.98c-.22-.25-.51-.38-.87-.38-.33,0-.61,.13-.84,.38-.22,.26-.33,.57-.33,.95Z"/><path d="M64.21,195.45h.98v7.31h-.98v-.44c-.38,.38-.82,.56-1.3,.56-.58,0-1.06-.21-1.44-.63-.38-.43-.57-.97-.57-1.61s.19-1.15,.57-1.58c.38-.42,.85-.64,1.41-.64,.49,0,.93,.2,1.32,.61v-3.58Zm-2.31,5.19c0,.4,.11,.73,.32,.99,.22,.26,.5,.38,.84,.38,.36,0,.65-.12,.87-.37,.22-.26,.33-.58,.33-.98s-.11-.72-.33-.98c-.22-.25-.51-.38-.87-.38-.33,0-.61,.13-.84,.38-.22,.26-.33,.57-.33,.95Z"/><path d="M66.41,198.55h.97v.38c.18-.19,.34-.32,.48-.38,.14-.07,.31-.11,.5-.11,.26,0,.52,.08,.8,.25l-.45,.89c-.18-.13-.36-.2-.54-.2-.53,0-.8,.4-.8,1.2v2.19h-.97v-4.21Z"/><path d="M73.51,200.89h-3.02c.03,.35,.14,.62,.34,.83,.2,.2,.45,.3,.77,.3,.24,0,.44-.06,.6-.17,.16-.12,.33-.33,.53-.64l.82,.46c-.13,.22-.26,.4-.4,.56-.14,.15-.29,.28-.45,.38-.16,.1-.34,.17-.52,.22-.19,.05-.39,.07-.61,.07-.63,0-1.13-.2-1.51-.61-.38-.41-.57-.95-.57-1.62s.18-1.21,.55-1.62c.37-.41,.87-.61,1.48-.61s1.11,.2,1.47,.59c.36,.39,.54,.94,.54,1.63v.23Zm-1-.8c-.14-.52-.46-.78-.98-.78-.12,0-.23,.02-.33,.05-.1,.04-.2,.09-.28,.16-.08,.07-.16,.15-.22,.24-.06,.1-.11,.2-.14,.33h1.96Z"/><path d="M77.02,199.27l-.8,.43c-.13-.26-.28-.39-.47-.39-.09,0-.17,.03-.23,.09-.06,.06-.1,.13-.1,.23,0,.16,.19,.32,.56,.48,.52,.22,.86,.43,1.04,.61s.27,.44,.27,.76c0,.41-.15,.75-.45,1.02-.29,.26-.64,.39-1.06,.39-.71,0-1.21-.34-1.5-1.03l.83-.38c.12,.2,.2,.33,.26,.38,.12,.11,.26,.16,.42,.16,.33,0,.49-.15,.49-.45,0-.17-.13-.33-.38-.49-.1-.05-.2-.1-.29-.14-.1-.05-.2-.09-.3-.14-.28-.14-.48-.28-.6-.42-.15-.18-.22-.4-.22-.68,0-.37,.13-.67,.38-.91,.26-.24,.57-.36,.94-.36,.54,0,.94,.28,1.2,.83Z"/><path d="M80.61,199.27l-.8,.43c-.13-.26-.28-.39-.47-.39-.09,0-.17,.03-.23,.09-.06,.06-.1,.13-.1,.23,0,.16,.19,.32,.56,.48,.52,.22,.86,.43,1.04,.61s.27,.44,.27,.76c0,.41-.15,.75-.45,1.02-.29,.26-.64,.39-1.06,.39-.71,0-1.21-.34-1.5-1.03l.83-.38c.12,.2,.2,.33,.26,.38,.12,.11,.26,.16,.42,.16,.33,0,.49-.15,.49-.45,0-.17-.13-.33-.38-.49-.1-.05-.2-.1-.29-.14-.1-.05-.2-.09-.3-.14-.28-.14-.48-.28-.6-.42-.15-.18-.22-.4-.22-.68,0-.37,.13-.67,.38-.91,.26-.24,.57-.36,.94-.36,.54,0,.94,.28,1.2,.83Z"/><path d="M82.96,200.05v2.71h-1.01v-6.68h1.14c.56,0,.98,.04,1.27,.12,.29,.08,.54,.23,.76,.44,.38,.38,.58,.85,.58,1.42,0,.61-.21,1.1-.61,1.45-.41,.36-.96,.54-1.66,.54h-.47Zm0-.93h.38c.93,0,1.39-.36,1.39-1.07s-.48-1.03-1.43-1.03h-.33v2.1Z"/><path d="M86.55,198.55h.97v.38c.18-.19,.34-.32,.48-.38,.14-.07,.31-.11,.5-.11,.26,0,.52,.08,.8,.25l-.45,.89c-.18-.13-.36-.2-.54-.2-.53,0-.8,.4-.8,1.2v2.19h-.97v-4.21Z"/><path d="M89.58,200.63c0-.61,.22-1.13,.65-1.55,.44-.43,.97-.64,1.59-.64s1.16,.21,1.6,.64c.43,.43,.65,.96,.65,1.58s-.22,1.16-.65,1.59c-.44,.42-.98,.64-1.61,.64s-1.16-.22-1.59-.65c-.43-.43-.64-.96-.64-1.61Zm1,.02c0,.42,.11,.75,.34,1,.23,.25,.54,.37,.91,.37s.69-.12,.91-.37c.23-.25,.34-.57,.34-.98s-.11-.74-.34-.98c-.23-.25-.54-.37-.91-.37s-.67,.12-.9,.37c-.23,.25-.35,.57-.35,.96Z"/><path d="M95.46,198.55l1.09,2.37,1.09-2.37h1.09l-2.19,4.5-2.17-4.5h1.09Z"/><path d="M99.24,196.8c0-.17,.06-.32,.19-.44s.27-.19,.45-.19,.33,.06,.45,.19c.12,.12,.19,.27,.19,.45s-.06,.33-.19,.45c-.12,.12-.27,.19-.45,.19s-.33-.06-.45-.19-.19-.28-.19-.45Zm1.12,1.75v4.21h-.97v-4.21h.97Z"/><path d="M104.7,195.45h.98v7.31h-.98v-.44c-.38,.38-.82,.56-1.3,.56-.58,0-1.06-.21-1.44-.63-.38-.43-.57-.97-.57-1.61s.19-1.15,.57-1.58c.38-.42,.85-.64,1.41-.64,.49,0,.93,.2,1.32,.61v-3.58Zm-2.31,5.19c0,.4,.11,.73,.32,.99,.22,.26,.5,.38,.84,.38,.36,0,.65-.12,.87-.37,.22-.26,.33-.58,.33-.98s-.11-.72-.33-.98c-.22-.25-.51-.38-.87-.38-.33,0-.61,.13-.84,.38-.22,.26-.33,.57-.33,.95Z"/><path d="M110.74,200.89h-3.02c.03,.35,.14,.62,.34,.83,.2,.2,.45,.3,.77,.3,.24,0,.44-.06,.6-.17,.16-.12,.33-.33,.53-.64l.82,.46c-.13,.22-.26,.4-.4,.56-.14,.15-.29,.28-.45,.38-.16,.1-.34,.17-.52,.22-.19,.05-.39,.07-.61,.07-.63,0-1.13-.2-1.51-.61-.38-.41-.57-.95-.57-1.62s.18-1.21,.55-1.62c.37-.41,.87-.61,1.48-.61s1.11,.2,1.47,.59c.36,.39,.54,.94,.54,1.63v.23Zm-1-.8c-.14-.52-.46-.78-.98-.78-.12,0-.23,.02-.33,.05-.1,.04-.2,.09-.28,.16-.08,.07-.16,.15-.22,.24-.06,.1-.11,.2-.14,.33h1.96Z"/><path d="M111.81,198.55h.97v.38c.18-.19,.34-.32,.48-.38,.14-.07,.31-.11,.5-.11,.26,0,.52,.08,.8,.25l-.45,.89c-.18-.13-.36-.2-.54-.2-.53,0-.8,.4-.8,1.2v2.19h-.97v-4.21Z"/><path d="M117.67,198.96v-.74h4.61v.74h-4.61Zm0,1.4v-.74h4.61v.74h-4.61Z"/><path d="M127.26,196.08v6.68h-1.01v-6.68h1.01Z"/><path d="M132.78,201.14h-2.86l-.74,1.62h-1.09l3.31-7.1,3.19,7.1h-1.1l-.7-1.62Zm-.41-.95l-.99-2.27-1.04,2.27h2.03Z"/><path d="M136.21,195.45v7.31h-.97v-7.31h.97Z"/><path d="M138.42,205.06h-.97v-6.51h.97v.46c.38-.38,.82-.58,1.31-.58,.58,0,1.06,.21,1.43,.64,.38,.42,.57,.96,.57,1.6s-.19,1.16-.57,1.58c-.38,.42-.85,.63-1.42,.63-.49,0-.93-.2-1.32-.59v2.76Zm2.32-4.37c0-.4-.11-.73-.33-.99-.22-.26-.5-.39-.84-.39-.36,0-.65,.12-.87,.37-.22,.25-.33,.57-.33,.98s.11,.72,.33,.98c.22,.25,.51,.38,.87,.38,.34,0,.62-.13,.83-.38,.22-.25,.34-.57,.34-.95Z"/><path d="M142.76,195.45h.97v3.44c.35-.31,.73-.47,1.15-.47,.48,0,.86,.15,1.14,.46,.24,.27,.36,.7,.36,1.29v2.58h-.97v-2.49c0-.34-.06-.58-.18-.73-.12-.15-.31-.23-.58-.23-.34,0-.58,.11-.72,.32-.14,.21-.2,.58-.2,1.1v2.04h-.97v-7.31Z"/><path d="M147.57,202.76l1.41-7.18,2.29,5.19,2.38-5.19,1.26,7.18h-1.03l-.64-4.03-1.98,4.34-1.92-4.34-.72,4.04h-1.04Z"/><path d="M157.33,200.05v2.71h-1.01v-6.68h1.14c.56,0,.98,.04,1.27,.12,.29,.08,.54,.23,.76,.44,.38,.38,.58,.85,.58,1.42,0,.61-.21,1.1-.61,1.45-.41,.36-.96,.54-1.66,.54h-.47Zm0-.93h.38c.93,0,1.39-.36,1.39-1.07s-.48-1.03-1.43-1.03h-.33v2.1Z"/><path d="M160.92,198.55h.97v.38c.18-.19,.34-.32,.48-.38,.14-.07,.31-.11,.5-.11,.26,0,.53,.08,.81,.25l-.45,.89c-.18-.13-.36-.2-.54-.2-.53,0-.8,.4-.8,1.2v2.19h-.97v-4.21Z"/><path d="M163.96,200.63c0-.61,.22-1.13,.65-1.55,.44-.43,.97-.64,1.59-.64s1.16,.21,1.6,.64c.43,.43,.65,.96,.65,1.58s-.22,1.16-.65,1.59c-.44,.42-.98,.64-1.61,.64s-1.16-.22-1.59-.65c-.43-.43-.64-.96-.64-1.61Zm1,.02c0,.42,.11,.75,.34,1,.23,.25,.54,.37,.91,.37s.68-.12,.91-.37c.23-.25,.34-.57,.34-.98s-.11-.74-.34-.98c-.23-.25-.54-.37-.91-.37s-.67,.12-.9,.37-.35,.57-.35,.96Z"/><path d="M169.83,198.55l1.09,2.37,1.09-2.37h1.09l-2.19,4.5-2.17-4.5h1.09Z"/><path d="M173.61,196.8c0-.17,.06-.32,.19-.44s.27-.19,.45-.19,.33,.06,.45,.19c.12,.12,.19,.27,.19,.45s-.06,.33-.19,.45c-.12,.12-.27,.19-.45,.19s-.33-.06-.45-.19-.19-.28-.19-.45Zm1.12,1.75v4.21h-.97v-4.21h.97Z"/><path d="M179.08,195.45h.98v7.31h-.98v-.44c-.38,.38-.82,.56-1.3,.56-.58,0-1.06-.21-1.44-.63-.38-.43-.57-.97-.57-1.61s.19-1.15,.57-1.58c.38-.42,.85-.64,1.42-.64,.49,0,.93,.2,1.32,.61v-3.58Zm-2.31,5.19c0,.4,.11,.73,.33,.99,.22,.26,.5,.38,.84,.38,.36,0,.65-.12,.87-.37,.22-.26,.33-.58,.33-.98s-.11-.72-.33-.98c-.22-.25-.51-.38-.87-.38-.33,0-.61,.13-.84,.38-.22,.26-.33,.57-.33,.95Z"/><path d="M185.12,200.89h-3.02c.03,.35,.14,.62,.34,.83,.2,.2,.45,.3,.77,.3,.24,0,.44-.06,.6-.17,.16-.12,.33-.33,.53-.64l.82,.46c-.13,.22-.26,.4-.4,.56s-.29,.28-.45,.38c-.16,.1-.34,.17-.52,.22s-.39,.07-.61,.07c-.63,0-1.13-.2-1.51-.61-.38-.41-.57-.95-.57-1.62s.18-1.21,.55-1.62c.37-.41,.87-.61,1.48-.61s1.11,.2,1.47,.59c.36,.39,.54,.94,.54,1.63v.23Zm-1-.8c-.14-.52-.46-.78-.98-.78-.12,0-.23,.02-.33,.05-.1,.04-.2,.09-.28,.16-.09,.07-.16,.15-.22,.24-.06,.1-.11,.2-.14,.33h1.96Z"/><path d="M186.18,198.55h.97v.38c.18-.19,.34-.32,.48-.38,.14-.07,.31-.11,.5-.11,.26,0,.53,.08,.81,.25l-.45,.89c-.18-.13-.36-.2-.54-.2-.53,0-.8,.4-.8,1.2v2.19h-.97v-4.21Z"/><path d="M190.63,195.38l.9,.35c-.31,.75-.54,1.45-.66,2.09-.06,.32-.11,.66-.14,1.02-.03,.36-.05,.74-.05,1.17s.02,.81,.05,1.17c.03,.36,.08,.7,.14,1.02,.12,.63,.34,1.33,.66,2.08l-.9,.35c-.63-1.32-.94-2.86-.94-4.62s.31-3.3,.94-4.62Z"/><path d="M192.13,203.32h5.01v.91h-5.01v-.91Z"/><path d="M200.86,198.55h.98v4.21h-.98v-.44c-.4,.38-.83,.56-1.29,.56-.58,0-1.06-.21-1.45-.63-.38-.43-.57-.97-.57-1.61s.19-1.16,.57-1.58c.38-.42,.85-.63,1.42-.63,.49,0,.93,.2,1.32,.61v-.49Zm-2.31,2.09c0,.4,.11,.73,.33,.99,.22,.26,.5,.38,.84,.38,.36,0,.65-.12,.87-.37,.22-.26,.33-.58,.33-.98s-.11-.72-.33-.98c-.22-.25-.51-.38-.87-.38-.33,0-.61,.13-.84,.38-.22,.26-.33,.57-.33,.95Z"/><path d="M206.17,195.45h.98v7.31h-.98v-.44c-.38,.38-.82,.56-1.3,.56-.58,0-1.06-.21-1.44-.63-.38-.43-.57-.97-.57-1.61s.19-1.15,.57-1.58c.38-.42,.85-.64,1.42-.64,.49,0,.93,.2,1.32,.61v-3.58Zm-2.31,5.19c0,.4,.11,.73,.33,.99,.22,.26,.5,.38,.84,.38,.36,0,.65-.12,.87-.37,.22-.26,.33-.58,.33-.98s-.11-.72-.33-.98c-.22-.25-.51-.38-.87-.38-.33,0-.61,.13-.84,.38-.22,.26-.33,.57-.33,.95Z"/><path d="M211.49,195.45h.98v7.31h-.98v-.44c-.38,.38-.82,.56-1.3,.56-.58,0-1.06-.21-1.44-.63-.38-.43-.57-.97-.57-1.61s.19-1.15,.57-1.58c.38-.42,.85-.64,1.42-.64,.49,0,.93,.2,1.32,.61v-3.58Zm-2.31,5.19c0,.4,.11,.73,.33,.99,.22,.26,.5,.38,.84,.38,.36,0,.65-.12,.87-.37,.22-.26,.33-.58,.33-.98s-.11-.72-.33-.98c-.22-.25-.51-.38-.87-.38-.33,0-.61,.13-.84,.38-.22,.26-.33,.57-.33,.95Z"/><path d="M213.69,198.55h.97v.38c.18-.19,.34-.32,.48-.38,.14-.07,.31-.11,.5-.11,.26,0,.53,.08,.81,.25l-.45,.89c-.18-.13-.36-.2-.54-.2-.53,0-.8,.4-.8,1.2v2.19h-.97v-4.21Z"/><path d="M220.79,200.89h-3.02c.03,.35,.14,.62,.34,.83,.2,.2,.45,.3,.77,.3,.24,0,.44-.06,.6-.17,.16-.12,.33-.33,.53-.64l.82,.46c-.13,.22-.26,.4-.4,.56s-.29,.28-.45,.38c-.16,.1-.34,.17-.52,.22s-.39,.07-.61,.07c-.63,0-1.13-.2-1.51-.61-.38-.41-.57-.95-.57-1.62s.18-1.21,.55-1.62c.37-.41,.87-.61,1.48-.61s1.11,.2,1.47,.59c.36,.39,.54,.94,.54,1.63v.23Zm-1-.8c-.14-.52-.46-.78-.98-.78-.12,0-.23,.02-.33,.05-.1,.04-.2,.09-.28,.16-.09,.07-.16,.15-.22,.24-.06,.1-.11,.2-.14,.33h1.96Z"/><path d="M224.3,199.27l-.8,.43c-.13-.26-.28-.39-.47-.39-.09,0-.17,.03-.23,.09-.06,.06-.09,.13-.09,.23,0,.16,.19,.32,.56,.48,.52,.22,.86,.43,1.04,.61,.18,.19,.27,.44,.27,.76,0,.41-.15,.75-.45,1.02-.29,.26-.64,.39-1.06,.39-.71,0-1.21-.34-1.5-1.03l.83-.38c.12,.2,.2,.33,.26,.38,.12,.11,.26,.16,.42,.16,.33,0,.49-.15,.49-.45,0-.17-.13-.33-.38-.49-.1-.05-.2-.1-.29-.14-.1-.05-.2-.09-.3-.14-.28-.14-.48-.28-.6-.42-.15-.18-.22-.4-.22-.68,0-.37,.12-.67,.38-.91,.26-.24,.57-.36,.93-.36,.54,0,.94,.28,1.2,.83Z"/><path d="M227.9,199.27l-.8,.43c-.13-.26-.28-.39-.47-.39-.09,0-.17,.03-.23,.09-.06,.06-.09,.13-.09,.23,0,.16,.19,.32,.56,.48,.52,.22,.86,.43,1.04,.61,.18,.19,.27,.44,.27,.76,0,.41-.15,.75-.45,1.02-.29,.26-.64,.39-1.06,.39-.71,0-1.21-.34-1.5-1.03l.83-.38c.12,.2,.2,.33,.26,.38,.12,.11,.26,.16,.42,.16,.33,0,.49-.15,.49-.45,0-.17-.13-.33-.38-.49-.1-.05-.2-.1-.29-.14-.1-.05-.2-.09-.3-.14-.28-.14-.48-.28-.6-.42-.15-.18-.22-.4-.22-.68,0-.37,.12-.67,.38-.91,.26-.24,.57-.36,.93-.36,.54,0,.94,.28,1.2,.83Z"/><path d="M230.24,200.05v2.71h-1.01v-6.68h1.14c.56,0,.98,.04,1.27,.12,.29,.08,.54,.23,.76,.44,.38,.38,.58,.85,.58,1.42,0,.61-.21,1.1-.61,1.45-.41,.36-.96,.54-1.66,.54h-.47Zm0-.93h.38c.93,0,1.39-.36,1.39-1.07s-.48-1.03-1.43-1.03h-.33v2.1Z"/><path d="M233.83,198.55h.97v.38c.18-.19,.34-.32,.48-.38,.14-.07,.31-.11,.5-.11,.26,0,.53,.08,.81,.25l-.45,.89c-.18-.13-.36-.2-.54-.2-.53,0-.8,.4-.8,1.2v2.19h-.97v-4.21Z"/><path d="M236.87,200.63c0-.61,.22-1.13,.65-1.55,.44-.43,.97-.64,1.59-.64s1.16,.21,1.6,.64c.43,.43,.65,.96,.65,1.58s-.22,1.16-.65,1.59c-.44,.42-.98,.64-1.61,.64s-1.16-.22-1.59-.65c-.43-.43-.64-.96-.64-1.61Zm1,.02c0,.42,.11,.75,.34,1,.23,.25,.54,.37,.91,.37s.68-.12,.91-.37c.23-.25,.34-.57,.34-.98s-.11-.74-.34-.98c-.23-.25-.54-.37-.91-.37s-.67,.12-.9,.37-.35,.57-.35,.96Z"/><path d="M242.74,198.55l1.09,2.37,1.09-2.37h1.09l-2.19,4.5-2.17-4.5h1.09Z"/></g></g></g></svg>